var fontJSON=
{"glyphs":{"0":{"ha":796,"x_min":31,"x_max":766,"o":"m 372 974 l 402 974 q 766 415 766 974 l 755 266 q 766 171 760 235 q 711 54 742 54 q 682 -3 697 54 q 649 -57 649 -41 q 654 -144 654 -112 l 654 -163 q 619 -203 644 -203 l 611 -203 q 557 -138 557 -186 q 530 -84 543 -84 q 413 -130 456 -106 l 405 -130 q 364 -119 391 -130 q 315 -163 352 -119 q 294 -168 305 -168 l 291 -168 q 196 -90 268 -168 q 172 -27 196 -37 q 36 138 66 43 q 31 203 31 173 l 31 239 q 36 350 31 308 q 33 488 33 425 l 33 494 q 223 939 33 840 q 372 974 305 974 m 383 675 q 367 678 381 675 q 337 618 337 664 q 353 589 353 598 l 353 567 q 340 518 353 546 q 356 233 348 426 q 391 157 361 157 l 399 157 l 413 160 l 413 339 q 410 377 413 354 q 421 439 421 401 q 418 589 421 463 q 421 632 418 593 q 418 684 418 646 l 416 684 q 383 675 396 675 m 454 591 q 448 537 454 587 q 465 369 448 441 l 465 331 q 462 247 465 297 l 462 244 l 465 244 q 486 336 486 296 l 486 339 q 484 363 486 349 q 489 385 489 378 q 475 445 475 431 q 454 591 475 579 z "},"1":{"ha":736,"x_min":31,"x_max":706,"o":"m 410 970 l 633 970 q 644 940 637 970 q 671 916 652 940 l 671 907 q 654 796 663 884 l 657 783 l 657 772 q 654 647 657 722 q 682 568 682 594 q 646 498 682 525 l 644 481 q 682 137 671 214 q 706 53 706 94 l 706 31 q 663 -26 706 14 q 622 -77 663 -47 l 622 -88 q 627 -129 627 -127 q 595 -142 615 -142 q 546 -85 546 -120 l 503 -69 q 467 -94 496 -69 q 424 -118 435 -118 l 416 -118 q 361 -64 389 -118 q 359 -53 361 -53 l 361 -39 l 361 23 q 332 85 361 62 q 323 132 323 111 l 323 156 q 351 259 323 197 q 367 452 351 283 l 367 652 l 364 652 q 321 604 330 652 q 267 544 267 568 q 231 444 267 444 l 226 444 q 174 500 191 444 q 109 601 163 546 q 60 644 90 644 q 31 699 31 677 l 31 707 q 96 774 63 732 q 166 796 114 796 q 370 951 186 796 q 410 970 391 970 z "},"2":{"ha":826,"x_min":31,"x_max":795,"o":"m 405 972 l 421 972 q 736 793 654 972 q 755 701 747 766 q 676 468 755 583 q 657 349 657 424 q 660 213 657 315 q 663 202 663 208 q 709 199 694 199 l 777 199 q 785 180 785 198 q 795 9 785 81 q 777 -88 791 -88 q 752 -91 762 -91 l 749 -91 l 730 -80 q 692 -156 730 -121 l 679 -156 q 630 -69 647 -137 l 616 -56 l 611 -56 q 557 -66 569 -66 q 494 -47 537 -66 q 456 -42 474 -42 q 391 -53 448 -42 q 329 -34 374 -53 q 291 -61 309 -61 l 286 -61 q 207 -39 255 -61 q 147 -85 157 -39 q 104 -107 125 -107 q 33 -28 66 -107 l 33 -26 q 36 31 33 -4 l 31 110 q 60 156 31 121 q 158 259 60 161 q 229 349 182 308 q 272 397 229 358 q 323 484 288 458 q 348 498 343 484 q 321 731 334 629 q 234 669 234 689 q 245 642 234 665 q 207 609 230 609 l 191 609 l 74 734 q 31 774 31 760 l 31 783 q 85 853 31 822 q 405 972 211 972 m 348 739 l 356 704 l 359 704 l 364 745 l 361 745 q 348 739 348 745 m 378 612 q 386 514 378 591 l 389 514 q 435 547 404 529 q 465 625 441 570 q 440 704 465 679 l 437 704 q 378 620 391 704 l 378 612 m 478 216 q 516 199 478 199 l 578 199 q 614 210 614 199 l 592 370 l 589 370 q 478 216 478 281 z "},"3":{"ha":810,"x_min":31,"x_max":779,"o":"m 359 972 l 421 972 q 703 853 618 972 q 739 750 739 793 q 720 620 739 743 q 728 430 720 544 l 725 416 q 779 270 779 340 l 779 232 q 749 123 779 188 q 752 80 752 96 q 695 15 728 15 q 663 -47 685 9 q 611 -80 639 -80 q 559 -39 604 -80 q 508 -31 543 -31 q 408 -61 467 -31 l 391 -61 q 345 -37 376 -61 l 332 -34 q 256 -115 256 -51 q 258 -156 258 -139 q 237 -170 252 -170 l 234 -170 q 182 -45 193 -170 q 158 -26 174 -26 q 115 -28 154 -26 q 68 18 90 -28 q 31 96 31 70 l 31 102 q 77 240 50 142 l 79 240 q 332 180 220 180 q 486 237 464 180 q 492 270 492 256 l 492 281 q 443 340 492 326 q 386 373 412 367 q 275 313 343 370 q 253 308 264 308 q 210 395 210 308 q 191 463 202 412 l 199 500 q 196 552 199 509 q 223 585 205 555 q 234 587 228 587 l 315 587 q 323 598 323 587 q 307 723 323 723 q 272 726 306 723 q 239 693 245 693 l 237 693 l 193 707 q 172 699 180 699 l 169 699 q 161 718 161 714 q 144 666 156 718 q 128 658 134 658 q 79 783 87 658 q 55 853 68 819 q 248 959 55 906 q 359 972 309 972 m 364 726 q 353 593 356 693 l 356 593 q 448 677 448 593 q 410 726 414 725 l 364 726 m 654 541 q 619 476 639 491 q 663 465 640 465 l 665 484 q 654 541 663 541 z "},"4":{"ha":883,"x_min":31,"x_max":852,"o":"m 432 977 l 519 977 q 654 974 561 977 q 671 846 665 974 q 706 757 689 770 q 728 627 728 670 q 695 581 728 621 l 692 575 q 739 396 692 446 q 795 372 795 396 q 852 315 852 357 l 852 293 q 820 165 852 276 q 782 146 799 146 q 749 149 763 149 q 717 68 722 149 q 714 8 714 27 q 720 -46 720 -41 q 692 -68 720 -62 q 627 -38 667 -68 q 568 -5 606 -38 q 532 -95 547 -95 l 516 -95 q 451 -52 475 -95 q 418 0 418 -32 q 427 19 418 9 l 427 24 l 405 84 l 408 111 q 283 184 352 184 q 234 174 256 174 l 182 184 l 177 184 q 147 133 157 184 l 136 54 l 136 38 q 125 19 136 24 l 120 19 q 79 71 83 19 l 79 73 q 82 87 79 82 q 39 193 82 146 q 33 206 39 197 q 36 255 33 211 q 31 298 36 267 q 55 420 31 408 q 74 458 74 449 q 68 494 74 469 q 112 564 81 564 q 153 610 138 564 l 193 662 q 226 705 216 662 q 299 806 269 749 q 408 963 315 814 q 432 977 422 977 m 408 564 q 294 410 369 501 q 304 396 299 397 q 353 393 315 396 q 418 445 392 393 q 413 562 413 524 l 408 564 z "},"5":{"ha":785,"x_min":31,"x_max":755,"o":"m 283 971 l 682 971 q 701 936 685 971 q 711 909 711 927 q 709 792 711 876 q 722 716 722 732 l 722 708 q 692 646 716 646 q 646 692 665 646 q 606 716 618 716 l 597 716 q 568 711 571 711 q 546 713 549 713 q 473 692 505 692 q 413 700 460 692 q 378 635 387 700 l 378 624 q 454 629 423 629 q 741 399 676 629 q 755 263 755 304 l 755 244 q 711 87 755 163 l 711 84 q 714 62 711 77 q 641 -16 692 -16 q 587 -8 624 -16 q 527 -127 555 -8 q 508 -176 522 -176 l 494 -176 q 465 -81 477 -176 l 435 -81 q 391 -68 427 -81 q 340 -127 378 -79 q 318 -136 326 -136 l 307 -136 q 180 -57 296 -136 q 150 -35 175 -57 q 115 -60 130 -60 l 104 -60 q 31 35 66 -60 l 31 52 q 55 111 55 91 q 50 163 50 144 q 52 241 50 182 q 71 250 62 250 l 85 250 q 188 206 121 250 q 218 203 199 206 q 264 217 247 203 l 277 217 q 389 187 330 217 l 399 187 q 440 250 422 187 q 402 391 422 391 q 359 342 359 378 q 329 255 345 255 l 323 255 q 302 358 302 267 l 296 385 l 269 385 q 220 366 260 385 l 215 366 q 131 410 178 368 q 60 480 92 410 q 58 524 58 508 l 58 532 q 101 627 58 581 q 109 700 109 660 q 87 779 109 709 l 87 795 q 109 827 87 806 l 106 841 l 106 854 q 125 901 125 894 q 134 968 131 962 q 283 971 232 971 z "},"6":{"ha":831,"x_min":31,"x_max":801,"o":"m 576 985 l 630 985 q 741 971 741 979 q 758 898 742 932 l 758 892 q 749 854 749 857 l 760 749 q 744 689 755 689 l 741 689 q 714 705 730 689 q 687 673 712 673 q 657 757 673 673 q 625 770 633 770 q 559 727 565 727 q 546 724 555 724 l 532 724 q 500 735 503 735 q 416 703 470 732 q 370 627 370 657 q 416 618 383 618 q 519 637 486 637 l 524 637 q 779 464 712 637 q 801 342 801 387 l 801 298 q 777 141 801 237 l 777 133 q 779 92 777 116 q 739 24 779 69 q 695 -84 695 -43 q 679 -152 679 -125 l 679 -212 q 644 -241 679 -241 q 627 -258 644 -245 l 616 -258 q 603 -233 603 -252 q 608 -193 603 -216 q 603 -165 603 -180 q 608 -130 608 -133 q 600 -54 606 -78 q 511 -92 557 -92 q 470 -87 488 -87 q 429 -95 432 -95 l 424 -95 q 391 -81 406 -95 q 361 -125 380 -88 l 348 -127 q 302 -52 326 -127 q 280 -49 287 -49 q 258 -71 269 -66 l 250 -71 q 142 35 205 -71 q 128 81 134 52 l 125 81 q 117 11 117 39 l 117 0 q 96 -14 111 -14 q 52 27 52 -2 q 58 136 55 131 q 33 323 55 193 q 41 372 33 329 q 31 431 31 420 l 31 448 q 58 551 47 494 q 147 754 89 614 q 576 985 280 985 m 364 326 q 397 195 364 315 q 424 187 411 187 l 440 187 q 478 220 478 187 q 481 277 481 250 q 478 285 481 279 q 481 296 481 290 l 481 304 q 440 399 481 399 l 429 399 q 364 326 397 399 m 532 293 q 513 212 513 239 q 535 288 535 238 l 535 293 l 532 293 z "},"7":{"ha":831,"x_min":31,"x_max":801,"o":"m 318 1000 l 326 1000 q 397 975 338 1000 l 584 975 q 785 978 654 975 q 801 970 801 975 l 801 823 q 758 704 801 814 q 752 644 752 664 l 752 598 q 733 574 752 574 l 711 585 q 698 395 698 463 q 703 313 703 321 q 698 300 698 304 q 701 270 701 276 q 682 240 689 240 q 657 262 657 245 l 657 316 q 654 357 657 330 q 627 278 646 357 l 619 273 l 608 273 q 589 275 597 275 q 568 170 568 203 q 578 39 568 144 q 559 4 570 4 l 551 4 q 494 56 505 54 l 492 56 q 462 -37 462 -25 q 467 -80 467 -76 l 467 -91 q 427 -156 460 -156 l 421 -156 q 370 -110 407 -156 l 342 -102 q 310 -118 326 -118 q 258 -69 290 -118 l 253 -69 q 215 -145 245 -145 l 212 -145 q 158 -64 180 -145 q 185 61 164 45 q 199 159 190 75 l 264 251 q 310 354 264 302 q 326 365 326 354 q 294 617 299 594 q 253 704 267 617 q 231 709 243 709 q 210 704 220 709 q 177 720 189 709 q 115 680 130 680 q 31 859 31 720 l 31 867 q 44 913 31 876 l 44 959 q 98 997 44 992 l 196 972 q 318 1000 253 972 m 367 544 q 370 498 367 530 l 372 498 q 429 595 372 503 q 467 658 448 658 l 470 671 l 470 674 q 418 728 452 728 q 389 734 395 734 q 367 644 367 734 l 367 544 z "},"8":{"ha":861,"x_min":31,"x_max":831,"o":"m 416 971 l 456 971 q 755 822 693 962 q 777 724 777 770 q 774 678 774 696 q 790 632 790 647 l 790 624 q 728 513 790 569 q 703 469 703 481 l 703 467 q 782 380 755 428 l 782 374 q 777 350 779 355 q 801 282 801 294 q 831 179 801 271 l 831 149 q 804 79 831 126 q 801 65 801 74 l 801 43 l 763 -3 l 747 -11 l 709 -8 q 679 -68 687 -8 q 652 -109 661 -106 l 646 -109 q 595 -79 627 -109 q 549 -193 565 -115 q 508 -244 512 -244 l 500 -244 q 446 -152 464 -244 q 416 -95 425 -98 l 413 -95 q 348 -125 377 -113 q 277 -65 324 -125 q 239 -130 239 -81 q 215 -146 233 -146 q 174 -90 174 -131 l 177 -71 q 131 -35 167 -35 q 71 81 76 20 l 36 144 q 31 184 36 145 q 66 288 50 288 q 134 396 100 369 q 218 461 162 425 l 220 475 l 220 477 q 185 521 220 491 q 153 515 166 515 l 150 515 q 93 637 102 524 l 93 662 q 96 665 93 665 l 93 670 q 90 741 93 677 q 264 947 90 880 q 416 971 338 971 m 348 700 q 399 618 348 659 q 408 616 405 616 q 451 627 451 621 q 410 765 439 765 q 408 768 408 765 q 348 700 348 747 m 494 743 l 489 692 q 492 659 492 677 l 492 654 l 494 654 q 511 692 511 671 l 511 700 q 494 743 511 730 m 435 312 q 413 315 425 315 q 353 233 380 253 q 348 198 352 198 q 443 136 348 162 q 481 149 443 147 l 494 149 q 484 304 486 289 q 475 301 478 301 q 459 320 459 307 q 435 312 442 312 m 527 274 l 527 187 l 530 187 q 549 209 549 193 l 549 220 q 527 274 549 257 z "},"9":{"ha":856,"x_min":31,"x_max":825,"o":"m 378 987 l 416 987 q 728 814 606 987 q 760 768 743 814 q 777 700 771 734 l 774 656 l 825 491 l 825 477 q 782 342 801 427 l 782 336 q 785 296 782 330 q 752 241 752 270 q 758 206 755 235 q 709 92 734 92 q 679 -33 679 92 l 668 -95 q 676 -117 676 -109 l 676 -119 q 657 -149 676 -136 l 633 -149 q 606 -16 615 -149 l 595 30 q 530 -27 541 6 q 429 -90 492 -90 l 418 -90 q 348 -65 384 -90 q 296 -106 340 -68 l 280 -109 l 277 -109 l 193 -81 q 150 -103 189 -81 l 136 -103 q 82 -11 100 -103 q 71 14 71 1 q 85 65 82 44 q 82 76 82 70 q 104 117 82 89 q 106 152 106 134 l 106 171 q 112 176 107 176 q 242 168 185 168 q 315 182 315 168 q 318 203 318 193 l 318 209 q 302 298 318 298 q 253 304 291 298 l 253 301 l 256 288 q 215 241 250 241 q 131 304 193 241 l 112 301 q 63 369 76 301 q 31 545 41 439 q 36 605 31 556 q 33 627 36 612 q 229 958 33 867 q 378 987 302 987 m 337 670 q 367 564 367 624 q 408 513 380 513 q 503 578 463 513 q 511 627 511 607 q 489 659 511 659 q 429 708 465 659 q 424 743 424 720 l 424 751 l 410 751 q 370 711 381 751 q 340 689 361 699 l 337 670 m 421 277 q 394 304 394 282 q 364 269 368 304 q 351 182 353 189 q 492 266 447 206 q 532 377 528 328 q 516 382 524 382 q 459 326 465 329 q 421 277 445 277 z "},"\u0000":{"ha":0,"x_min":0,"x_max":0,"o":""},"\u001d":{"ha":0,"x_min":0,"x_max":0,"o":""}," ":{"ha":345,"x_min":0,"x_max":0,"o":""}," ":{"ha":345,"x_min":0,"x_max":0,"o":""},"!":{"ha":452,"x_min":31,"x_max":421,"o":"m 277 1061 q 321 1055 286 1061 q 345 1061 338 1061 l 353 1061 q 383 993 383 1061 l 383 971 q 359 860 383 960 q 361 814 361 823 q 356 781 361 807 q 389 553 356 655 q 421 450 421 528 l 421 439 q 389 372 421 414 l 389 366 q 397 301 397 331 q 359 233 397 248 q 304 222 317 222 l 264 231 q 191 203 209 203 l 153 201 q 79 250 79 207 q 63 307 63 278 l 63 331 q 82 507 82 469 q 50 613 82 515 l 47 632 q 50 779 50 717 l 50 798 q 55 819 50 800 q 31 930 31 918 l 31 947 q 112 1015 47 1015 l 115 1015 l 128 1012 q 169 1042 128 1038 q 204 1039 181 1042 q 264 1061 213 1039 l 277 1061 m 220 160 q 356 92 319 160 q 370 33 370 52 l 370 30 q 364 -30 370 10 l 367 -54 q 332 -109 367 -79 q 267 -163 307 -163 l 220 -163 q 109 -122 180 -163 q 79 -52 94 -109 q 60 -19 60 -32 q 93 95 60 54 q 220 160 129 160 z "},"\"":{"ha":496,"x_min":0,"x_max":0,"o":""},"#":{"ha":1012,"x_min":0,"x_max":0,"o":""},"$":{"ha":751,"x_min":0,"x_max":0,"o":""},"%":{"ha":1191,"x_min":0,"x_max":0,"o":""},"&":{"ha":1202,"x_min":0,"x_max":0,"o":""},"'":{"ha":275,"x_min":0,"x_max":0,"o":""},"(":{"ha":586,"x_min":0,"x_max":0,"o":""},")":{"ha":586,"x_min":0,"x_max":0,"o":""},"*":{"ha":741,"x_min":0,"x_max":0,"o":""},"+":{"ha":751,"x_min":0,"x_max":0,"o":""},",":{"ha":408,"x_min":31,"x_max":378,"o":"m 153 317 l 182 317 q 277 309 227 317 l 321 315 q 378 274 357 315 q 375 228 378 260 q 378 182 378 191 q 323 11 378 134 q 231 -165 271 -165 q 201 -152 209 -152 q 163 -195 186 -152 q 117 -217 138 -217 l 106 -217 q 33 -149 61 -217 q 31 -122 31 -135 l 31 -109 q 82 84 31 -85 q 85 157 85 126 q 82 214 85 184 q 85 277 85 233 q 136 309 85 294 q 153 317 139 317 z "},"-":{"ha":525,"x_min":0,"x_max":0,"o":""},"­":{"ha":525,"x_min":0,"x_max":0,"o":""},".":{"ha":408,"x_min":31,"x_max":378,"o":"m 253 330 l 261 330 q 329 286 313 305 q 370 229 329 273 q 378 189 378 215 q 353 96 378 153 q 304 20 353 61 q 275 -26 295 -26 l 269 -26 q 237 -9 264 -26 l 231 -9 q 215 -72 215 -66 q 218 -94 218 -82 l 207 -102 l 196 -102 q 172 -53 182 -102 q 144 -4 148 -7 q 44 77 69 24 q 33 102 33 100 q 36 137 33 103 q 31 202 31 191 q 109 286 43 231 q 253 330 160 330 z "},"/":{"ha":435,"x_min":0,"x_max":0,"o":""},":":{"ha":424,"x_min":0,"x_max":0,"o":""},";":{"ha":424,"x_min":0,"x_max":0,"o":""},";":{"ha":424,"x_min":0,"x_max":0,"o":""},"<":{"ha":751,"x_min":0,"x_max":0,"o":""},"=":{"ha":751,"x_min":0,"x_max":0,"o":""},">":{"ha":751,"x_min":0,"x_max":0,"o":""},"?":{"ha":570,"x_min":0,"x_max":0,"o":""},"@":{"ha":1432,"x_min":0,"x_max":0,"o":""},"A":{"ha":1086,"x_min":31,"x_max":1056,"o":"m 405 975 l 418 975 q 473 967 433 975 q 744 970 687 970 q 842 661 755 960 q 920 406 847 649 q 975 308 975 384 q 977 264 975 292 q 975 235 975 250 q 1056 -42 977 214 l 1056 -53 q 1021 -104 1056 -104 l 1007 -107 q 956 -50 1000 -107 q 904 -39 932 -39 q 855 -53 901 -39 l 842 -53 l 842 -75 q 790 -142 842 -103 l 779 -142 q 736 -69 751 -142 l 736 -56 q 741 4 736 -44 q 720 66 741 20 l 720 107 q 676 161 720 131 q 614 134 614 154 q 557 99 595 110 q 494 151 537 99 l 489 153 q 429 99 429 153 q 397 64 429 64 q 334 -58 367 64 q 304 -110 334 -110 l 291 -110 q 242 -42 256 -110 q 174 -77 194 -77 l 172 -77 q 104 -31 149 -76 l 98 -31 q 71 -99 90 -31 l 58 -107 q 31 -66 36 -107 l 31 -20 q 299 715 68 60 q 307 742 307 724 l 307 780 q 340 937 307 840 q 405 975 366 975 m 543 690 q 456 384 456 411 l 527 384 q 562 389 550 384 q 565 517 565 475 l 565 533 q 546 636 565 612 l 546 642 q 554 688 554 680 l 549 690 l 543 690 m 606 574 l 603 547 q 600 438 603 522 q 592 411 592 425 l 592 387 q 622 384 616 384 q 654 392 654 385 q 606 574 614 574 z "},"B":{"ha":856,"x_min":31,"x_max":825,"o":"m 473 975 q 798 826 724 975 q 814 720 810 804 q 785 557 814 602 q 741 506 766 506 l 736 506 l 687 522 q 654 511 660 511 l 654 506 q 782 430 741 484 q 825 294 825 374 l 825 267 q 790 132 825 215 q 755 56 790 73 q 706 9 706 21 q 660 -104 660 -97 q 625 -142 652 -142 l 614 -142 q 559 -83 578 -142 q 562 -37 562 -51 q 557 -23 557 -28 l 549 -23 q 508 -61 549 -51 l 494 -61 q 416 -39 450 -61 l 413 -39 q 348 -80 409 -39 l 334 -83 q 215 -31 239 -31 q 153 -69 168 -31 q 106 -102 140 -102 l 87 -102 q 41 -42 56 -102 l 52 514 q 47 552 47 543 l 47 560 l 58 633 q 36 774 36 739 q 31 793 31 774 l 31 804 q 60 878 31 814 q 63 937 63 918 l 63 962 l 68 970 q 473 975 269 975 m 332 715 l 332 636 q 329 595 332 623 q 359 593 344 595 q 511 631 488 593 q 530 693 530 653 q 511 736 530 720 q 459 704 485 704 l 451 704 q 394 764 429 704 l 389 766 l 383 766 q 361 728 378 766 q 332 715 347 715 m 323 359 q 321 237 321 277 l 321 191 l 418 191 l 418 194 q 421 221 418 220 q 418 273 418 251 l 418 340 l 405 338 l 394 338 q 345 362 389 338 l 342 362 l 323 359 m 475 357 q 456 199 456 310 q 459 197 459 199 q 532 254 505 197 l 532 256 q 494 335 494 303 q 475 357 484 355 z "},"C":{"ha":883,"x_min":31,"x_max":852,"o":"m 522 963 l 568 963 q 852 895 707 963 l 852 890 q 844 770 852 852 q 847 713 847 735 q 814 458 838 458 l 806 458 q 774 529 789 466 q 752 629 758 529 q 695 656 746 637 q 673 684 677 684 q 641 670 650 670 l 627 670 q 573 692 613 670 q 513 534 513 610 q 511 420 513 493 q 513 279 513 349 l 516 274 q 511 212 511 260 l 511 168 l 524 165 l 559 165 q 806 225 649 165 q 825 138 814 138 q 836 84 836 109 l 836 81 q 809 24 836 59 l 806 -3 q 809 -57 809 -33 q 777 -103 809 -103 q 714 -68 753 -103 l 711 -68 q 646 -65 696 -68 q 557 -133 622 -65 l 538 -136 l 524 -136 q 437 -100 500 -136 q 402 -92 418 -92 q 364 -106 378 -106 l 353 -106 q 269 -38 334 -106 q 242 -43 245 -43 q 144 14 164 -43 q 115 73 129 73 q 50 198 104 73 q 44 236 44 218 l 44 252 q 50 312 44 264 q 31 396 50 326 q 33 407 31 402 q 31 472 31 445 l 31 483 q 134 765 31 575 q 372 939 220 889 q 522 963 454 963 m 329 453 l 329 423 q 443 184 329 242 q 478 174 463 176 l 478 176 q 484 307 478 220 q 437 429 484 371 q 435 450 435 444 q 462 551 462 530 q 421 670 462 580 l 405 684 q 329 453 329 603 z "},"D":{"ha":1005,"x_min":31,"x_max":975,"o":"m 71 974 l 418 974 q 880 757 749 974 q 934 667 905 745 l 934 656 l 926 616 q 975 429 958 462 l 975 423 q 934 350 975 402 q 926 182 929 332 q 909 109 916 109 q 885 236 892 109 l 882 236 q 814 8 814 80 q 793 -76 814 -68 l 787 -76 q 755 5 755 -76 q 752 54 752 31 q 698 -16 741 50 q 638 -46 662 -46 l 622 -46 q 516 -22 611 -46 q 513 -24 513 -22 q 473 -81 503 -64 q 432 -95 437 -95 l 416 -95 q 332 -24 391 -95 l 323 -24 q 245 -68 279 -68 l 234 -68 q 158 -30 215 -68 q 125 -79 137 -30 q 101 -92 111 -92 l 93 -92 q 41 35 41 -92 q 39 76 39 52 q 44 190 44 162 q 39 258 39 248 q 63 334 39 281 l 63 347 q 36 475 63 379 l 36 483 q 63 627 36 510 q 66 678 66 663 q 31 784 66 702 l 31 803 q 63 871 31 821 q 66 892 66 882 l 66 968 q 71 974 66 974 m 345 724 l 345 665 q 391 526 345 597 q 437 445 422 509 l 437 429 q 416 388 437 421 q 408 361 411 378 q 410 290 410 315 l 410 258 q 408 203 410 240 l 410 203 q 614 317 559 203 q 644 477 644 397 l 644 499 q 573 705 644 644 q 519 496 541 640 l 511 491 l 503 491 q 467 564 473 491 q 421 732 460 709 q 383 757 401 757 l 378 757 q 345 724 345 757 m 364 345 q 345 290 345 304 l 345 203 l 367 203 l 367 345 l 364 345 z "},"E":{"ha":709,"x_min":31,"x_max":679,"o":"m 109 1005 l 117 1005 q 158 978 127 1005 q 188 972 162 975 q 258 975 241 975 q 304 972 296 972 q 367 1002 313 972 l 370 1002 q 478 978 478 996 q 500 972 488 972 l 644 972 q 668 954 668 972 l 668 764 q 627 720 630 720 l 625 720 q 589 742 616 720 q 541 693 574 693 q 500 720 534 693 q 440 750 483 720 q 416 753 425 753 l 413 753 q 351 718 376 720 q 356 642 353 703 l 359 642 q 489 604 403 642 l 616 604 q 646 598 635 604 q 649 430 649 486 l 649 368 q 606 319 649 346 q 603 311 606 311 l 606 297 l 606 229 q 611 202 606 202 q 676 194 676 202 l 679 178 l 679 -18 q 663 -110 663 -81 l 663 -132 l 665 -151 q 635 -156 654 -156 q 611 -72 617 -130 q 592 -34 601 -34 q 503 -102 561 -34 q 486 -107 494 -107 q 397 -50 437 -107 l 394 -50 q 337 -94 379 -50 q 310 -102 323 -102 l 307 -102 q 234 -66 290 -102 l 231 -66 q 193 -115 213 -115 q 182 -118 189 -118 q 134 -58 164 -115 l 131 -58 q 109 -66 117 -66 l 101 -66 q 33 -7 54 -66 q 31 23 31 12 l 31 28 q 63 121 31 55 l 63 340 q 60 528 63 408 q 31 582 31 561 l 31 601 q 50 772 50 745 q 41 907 50 779 q 47 926 41 913 q 44 956 44 945 q 109 1005 44 985 m 345 387 l 345 270 q 432 202 345 202 l 568 202 q 573 281 573 254 q 546 362 573 362 q 519 381 546 368 q 443 343 469 343 q 375 387 408 343 l 345 387 z "},"F":{"ha":734,"x_min":31,"x_max":703,"o":"m 134 1009 q 226 977 142 1009 q 242 974 240 974 q 654 971 522 971 q 687 952 687 971 q 703 844 687 937 l 703 822 q 676 708 698 708 l 665 708 q 614 738 629 722 q 543 719 566 719 q 508 732 536 719 q 446 667 486 680 q 405 643 429 643 l 367 643 l 367 572 l 394 570 l 654 570 q 671 564 662 570 l 676 366 q 630 304 676 356 q 578 250 608 250 l 570 250 q 511 317 553 250 q 475 342 506 317 q 402 271 402 309 q 375 195 375 208 q 378 -3 378 60 q 372 -27 378 -14 l 375 -43 l 375 -46 q 337 -76 352 -76 l 302 -76 q 291 -79 296 -76 q 234 -41 277 -79 l 226 -41 q 166 -92 166 -59 q 144 -109 161 -109 l 120 -109 q 82 -60 92 -109 l 87 125 q 71 193 71 163 l 71 222 q 79 296 79 282 q 58 426 58 400 l 58 434 q 74 537 74 506 q 90 635 74 557 l 90 675 q 66 768 90 688 q 31 920 50 850 l 31 933 q 115 1009 54 1009 l 134 1009 z "},"G":{"ha":956,"x_min":31,"x_max":926,"o":"m 511 987 l 565 987 q 869 922 718 987 q 885 871 885 900 l 885 865 q 861 792 885 859 q 863 730 863 743 q 823 651 863 687 l 806 608 l 806 586 l 809 567 l 828 567 q 901 564 851 567 q 909 556 901 560 q 926 33 926 123 q 890 -57 890 -14 q 861 -146 890 -146 q 779 -33 831 -146 q 766 -14 768 -14 l 758 -14 q 671 -68 735 -14 q 606 -90 625 -90 q 473 -54 593 -90 l 470 -54 q 399 -157 457 -54 q 389 -176 396 -176 l 367 -176 q 334 -95 350 -176 q 272 -30 313 -50 q 204 87 224 23 q 144 119 189 106 q 47 290 47 210 q 31 393 31 349 l 31 437 l 39 464 l 39 529 q 313 952 39 837 q 511 987 421 987 m 323 494 q 470 214 323 279 l 475 214 q 484 277 484 241 l 484 320 q 448 369 484 334 l 448 377 q 459 469 459 449 l 459 543 q 484 570 463 570 l 511 570 q 766 567 604 570 q 774 570 771 570 q 714 703 774 624 q 603 722 673 722 q 530 697 557 697 l 527 697 q 448 746 507 697 q 323 494 323 692 m 543 317 l 543 296 q 589 198 551 198 q 665 241 665 210 l 665 260 q 592 328 665 308 l 578 328 q 543 317 543 326 z "},"H":{"ha":986,"x_min":31,"x_max":956,"o":"m 264 1017 q 342 968 342 1000 l 342 958 q 318 920 342 944 q 359 787 359 815 q 337 741 359 779 q 332 697 335 737 q 451 618 332 632 l 546 618 q 589 722 555 618 l 589 724 q 568 814 568 804 q 611 901 568 839 q 616 930 616 929 q 614 963 614 949 q 638 977 614 977 l 861 977 q 890 939 890 977 q 939 743 890 791 l 942 727 l 942 724 l 909 654 q 904 583 904 618 l 904 559 q 953 244 904 416 q 956 198 956 223 l 956 174 q 931 27 956 105 l 928 14 q 931 -3 931 -1 q 904 -43 931 -27 l 871 -41 q 850 -90 853 -41 q 825 -109 840 -109 l 820 -109 q 771 -46 790 -109 q 763 -43 768 -46 q 711 -84 749 -51 l 695 -87 q 622 -38 660 -87 q 606 -5 606 -15 l 606 5 q 625 114 625 73 q 619 195 625 130 l 622 222 q 619 293 619 253 l 619 307 l 616 320 q 608 304 608 317 l 608 298 q 611 269 608 287 q 595 247 604 247 q 549 307 571 247 l 543 309 l 527 309 q 522 220 522 248 l 522 209 q 497 174 517 174 q 465 244 465 174 q 440 369 462 369 q 397 396 411 396 q 342 334 342 374 q 353 14 342 287 q 280 -52 317 -52 l 272 -52 q 177 -22 229 -52 l 174 -22 q 142 -54 174 -36 q 44 22 76 -54 l 44 62 l 31 165 q 47 233 47 203 q 31 326 47 249 l 31 328 l 47 372 q 41 450 41 420 q 52 681 52 587 q 44 979 52 711 l 55 987 l 74 987 q 166 985 110 987 l 264 1017 z "},"I":{"ha":449,"x_min":31,"x_max":418,"o":"m 106 993 l 120 993 q 193 974 132 993 l 367 974 q 375 960 371 974 q 367 722 370 766 q 413 613 367 683 q 418 581 418 594 l 418 570 q 370 477 418 517 q 361 475 364 475 l 356 347 q 391 285 360 323 l 394 269 l 394 266 q 356 176 387 210 l 356 168 q 351 -41 356 94 q 286 -84 330 -43 q 267 -92 272 -92 q 231 -79 258 -92 q 210 -206 224 -79 q 174 -231 191 -231 l 163 -231 q 131 -190 140 -231 q 136 -111 136 -127 l 136 -100 q 96 -84 136 -95 q 63 -38 72 -75 q 55 8 55 -7 q 60 38 55 13 l 58 43 l 60 57 q 47 133 47 105 q 50 206 47 164 q 47 231 47 221 l 68 336 l 68 345 q 60 380 68 351 q 85 559 66 448 l 85 629 q 60 697 85 637 q 58 719 58 708 l 58 749 q 31 841 31 812 l 31 854 q 60 930 31 890 q 87 990 60 990 q 106 993 91 993 z "},"J":{"ha":677,"x_min":31,"x_max":646,"o":"m 332 966 l 595 966 q 600 960 600 965 l 600 917 q 597 879 600 896 q 603 819 603 829 l 597 732 q 635 648 597 692 q 646 602 646 621 l 646 581 q 627 453 627 493 l 627 429 q 622 304 627 320 l 625 288 l 625 277 q 578 43 625 79 q 554 22 568 43 l 554 19 q 565 -27 554 14 q 527 -114 552 -114 q 492 -217 492 -142 q 451 -285 479 -267 l 443 -285 q 399 -241 412 -285 l 402 -222 l 402 -184 l 383 -184 q 321 -228 361 -184 q 258 -250 290 -250 l 250 -250 q 153 -214 214 -250 l 150 -214 q 98 -228 117 -228 l 96 -228 q 31 -160 45 -228 l 31 -146 q 47 -92 31 -137 q 39 -43 39 -57 l 39 -30 q 79 3 39 -3 q 174 -11 140 -11 q 275 43 247 -11 q 291 103 291 83 q 264 138 284 117 q 258 174 258 151 l 258 193 q 296 288 258 261 q 307 415 307 319 q 275 545 307 457 q 272 583 272 568 l 272 637 q 275 692 272 662 q 269 754 272 703 q 304 849 269 776 q 323 914 304 871 q 326 947 326 928 l 326 960 q 332 966 327 966 m 578 288 l 578 193 q 592 184 578 186 l 592 187 q 595 285 592 224 q 592 369 592 335 l 589 369 q 578 288 578 369 z "},"K":{"ha":991,"x_min":31,"x_max":961,"o":"m 104 993 l 123 993 q 182 966 137 993 l 359 966 q 370 795 370 966 q 367 732 367 745 q 380 627 372 702 q 465 713 454 713 q 511 754 494 713 q 663 966 660 966 q 673 968 667 968 l 771 968 q 945 971 832 968 q 961 963 961 968 l 961 960 q 942 857 947 960 q 926 814 926 845 l 926 732 q 912 689 912 714 q 896 684 903 684 q 880 711 880 694 l 880 776 l 877 776 q 823 722 877 759 l 820 703 l 820 684 l 782 651 q 777 524 777 618 l 777 496 q 798 212 789 212 q 950 -73 950 -48 l 950 -84 q 926 -114 950 -114 q 896 -90 922 -114 l 877 -90 l 877 -117 q 844 -190 877 -170 l 831 -190 q 787 -146 810 -190 q 752 -62 787 -123 q 698 -119 717 -119 l 682 -119 q 619 -65 656 -119 l 614 -62 l 597 -65 q 541 33 541 -27 q 503 152 527 69 q 456 247 456 188 q 421 315 456 290 q 380 279 380 306 q 375 239 375 254 l 375 231 q 380 193 375 213 q 353 87 380 182 l 353 -3 q 313 -122 353 -122 q 272 -68 298 -122 l 253 -62 q 239 -152 242 -62 q 204 -187 229 -187 q 161 -144 182 -187 l 155 -127 l 158 -111 l 158 -106 q 153 -100 158 -100 q 123 -127 140 -127 q 52 -57 85 -127 l 52 -38 q 58 16 52 -36 q 31 195 31 87 q 60 326 50 267 l 58 350 q 77 456 58 368 q 55 526 77 490 q 39 608 39 574 q 82 760 39 626 l 82 784 q 55 857 82 834 q 60 944 60 917 q 55 966 55 954 q 104 993 55 993 m 668 507 l 668 505 q 703 391 668 455 l 744 363 l 747 363 l 747 374 q 741 621 747 488 l 739 621 q 720 572 724 621 q 673 532 709 559 q 668 507 668 514 z "},"L":{"ha":796,"x_min":31,"x_max":766,"o":"m 98 974 l 370 974 q 375 968 375 973 q 372 534 372 659 q 378 339 378 374 q 478 217 378 266 q 597 250 532 250 q 638 220 622 242 q 671 174 656 185 l 760 174 q 766 168 766 173 l 766 -38 q 706 -100 766 -82 q 695 -125 695 -104 l 695 -160 q 657 -217 686 -217 l 652 -217 q 614 -152 614 -209 l 614 -106 q 603 -87 614 -91 l 597 -87 l 522 -122 l 492 -127 q 408 -81 454 -127 l 394 -81 q 348 -103 348 -87 q 318 -152 336 -152 q 253 -92 253 -135 l 253 -87 q 204 -71 214 -71 q 150 -100 157 -100 q 41 -33 85 -100 q 66 125 66 104 q 52 217 55 158 q 36 255 41 233 q 50 350 36 271 l 50 355 q 31 439 50 377 l 31 450 q 44 518 44 499 l 44 521 l 33 570 l 60 651 q 63 681 63 669 q 60 751 63 700 q 87 890 69 868 q 90 903 90 895 l 90 958 q 98 974 92 974 z "},"M":{"ha":1344,"x_min":31,"x_max":1314,"o":"m 87 975 l 440 975 q 473 910 463 975 q 625 408 608 454 q 660 365 647 365 l 660 368 q 706 503 685 392 l 739 582 l 733 601 q 801 699 733 631 q 874 943 812 713 q 890 975 884 975 l 1257 975 q 1265 959 1265 972 l 1265 549 q 1297 349 1265 384 q 1303 308 1303 323 l 1303 270 q 1276 107 1303 198 l 1314 4 l 1314 -1 q 1267 -88 1314 -20 l 1267 -91 q 1273 -115 1273 -111 q 1232 -164 1249 -164 q 1167 -107 1186 -164 l 1167 -99 q 1121 -102 1135 -102 l 1107 -94 l 1105 -94 q 1048 -194 1099 -194 l 1037 -194 q 1004 -151 1004 -174 l 1004 -91 q 977 -50 977 -64 l 977 -42 q 983 -18 977 -35 q 980 28 980 20 q 996 102 980 51 l 991 137 l 999 189 l 996 216 q 1004 313 1004 282 l 1004 435 q 985 487 1004 459 l 983 487 q 947 340 947 430 q 923 134 932 340 q 937 31 937 50 q 920 -4 937 8 l 918 -4 q 880 34 880 1 q 888 56 880 41 q 882 151 888 81 q 885 159 885 156 l 880 205 q 836 53 863 180 q 833 28 833 53 l 833 -34 l 793 -218 l 785 -224 l 766 -224 q 747 -208 751 -208 q 752 -180 748 -180 q 744 -102 747 -165 q 725 -99 736 -102 q 687 -140 725 -125 l 676 -140 q 622 -104 661 -140 q 589 -145 617 -104 q 578 -148 585 -148 q 543 -134 568 -148 l 543 -167 q 530 -189 543 -182 l 519 -189 q 481 -110 481 -189 q 459 58 459 -7 q 402 142 402 58 q 394 316 398 142 l 356 463 q 351 471 356 471 l 348 471 q 329 403 329 439 l 329 -47 q 288 -83 298 -83 l 269 -80 q 256 -175 256 -103 q 226 -194 249 -194 q 185 -134 185 -177 q 166 -61 176 -61 q 163 -69 166 -64 q 166 -121 166 -106 q 139 -142 159 -142 q 58 -47 109 -141 q 36 -12 36 -26 l 36 -4 q 52 39 52 31 q 36 113 36 86 l 36 129 q 52 180 36 138 l 52 183 q 39 218 39 216 l 50 373 l 36 427 q 63 555 63 539 q 41 644 60 585 q 60 696 41 664 q 31 766 31 732 l 31 769 q 58 888 31 842 q 87 975 71 975 z "},"N":{"ha":1133,"x_min":31,"x_max":1102,"o":"m 975 1008 q 1078 948 1078 981 q 1072 888 1072 900 l 1072 869 q 1078 788 1072 847 q 1067 731 1078 775 q 1102 671 1102 691 l 1102 663 q 1069 549 1069 587 l 1069 525 q 1080 454 1080 465 l 1080 419 q 1061 273 1080 309 l 1059 259 q 1083 175 1059 214 q 1088 140 1088 163 l 1088 39 q 1094 18 1094 20 l 1094 9 q 1072 -56 1094 -9 q 1034 -292 1063 -270 l 1031 -292 q 980 -148 989 -292 q 928 -104 980 -132 q 888 -153 915 -138 l 880 -153 q 804 -102 848 -153 q 782 -99 789 -99 q 760 -113 768 -99 l 760 -140 q 736 -159 746 -159 q 682 -99 682 -127 q 630 -1 652 -77 q 578 91 578 80 q 519 170 578 113 q 486 218 519 174 q 475 189 475 204 l 475 66 q 467 45 475 47 l 456 45 q 432 123 439 45 q 437 189 437 174 l 437 194 l 421 408 q 402 495 402 456 q 315 661 326 633 l 310 661 l 310 658 q 337 471 315 471 q 342 452 342 460 q 332 164 342 373 q 351 18 343 18 q 378 -53 358 13 q 329 -113 359 -98 l 318 -115 l 318 -148 q 296 -180 318 -162 q 261 -140 267 -180 l 261 -132 l 258 -132 q 223 -208 223 -132 q 180 -275 212 -275 q 125 -148 125 -247 l 125 -134 l 123 -115 q 74 -140 88 -140 l 68 -140 q 36 -69 36 -128 l 36 -7 q 68 126 36 30 l 68 140 q 44 218 44 190 q 55 321 55 309 q 39 419 39 391 l 39 427 q 47 476 39 446 q 31 557 31 547 l 31 585 q 50 644 50 634 q 47 726 50 656 q 68 783 47 734 l 68 967 q 74 972 69 972 l 416 972 q 467 910 446 972 q 701 476 471 909 l 739 435 l 758 435 q 777 446 777 435 q 804 530 777 481 l 804 536 q 787 650 804 650 l 787 652 l 790 690 q 768 734 768 721 l 777 793 q 771 829 774 826 q 801 872 771 837 l 801 964 q 806 970 802 970 l 915 970 q 975 1008 935 970 z "},"O":{"ha":1133,"x_min":31,"x_max":1102,"o":"m 535 964 l 584 964 q 836 905 701 964 q 928 848 878 905 q 994 753 933 812 q 1004 709 997 753 q 1056 530 1026 671 q 1083 454 1083 521 q 1102 373 1102 392 l 1102 357 q 1053 286 1102 328 q 1026 113 1038 262 q 1002 9 1026 62 q 972 -47 1002 -47 q 934 -4 957 -41 l 934 4 l 937 31 l 928 31 l 901 -18 q 809 -91 901 -22 q 755 -134 776 -134 l 752 -134 q 701 -107 736 -134 q 684 -104 696 -104 q 654 -140 665 -104 q 630 -175 630 -153 q 603 -264 626 -264 l 581 -264 q 538 -164 538 -264 q 535 -113 535 -138 l 511 -113 q 451 -159 477 -159 q 342 -85 407 -159 l 329 -50 l 307 -91 q 269 -107 288 -107 l 264 -107 q 188 -28 221 -107 q 131 91 188 64 q 63 245 63 233 q 66 275 66 264 l 66 286 q 36 357 66 296 q 31 387 31 368 l 31 403 q 66 511 31 437 q 174 815 66 660 q 535 964 308 964 m 516 536 q 519 471 516 520 q 500 332 516 430 q 511 151 502 151 q 576 145 535 145 l 587 145 q 747 275 713 145 l 747 278 q 709 595 747 520 q 695 620 705 620 q 665 609 679 609 q 603 669 603 636 q 578 699 583 699 l 559 699 q 538 658 538 699 q 516 536 516 585 m 424 669 q 364 498 396 639 l 361 460 q 470 170 361 224 l 470 172 q 465 273 465 252 q 467 338 465 322 q 465 460 465 401 l 465 552 q 440 666 465 666 q 424 669 438 666 z "},"P":{"ha":834,"x_min":31,"x_max":804,"o":"m 104 987 l 117 987 q 177 968 157 968 l 361 968 q 684 895 601 968 q 795 722 763 840 q 804 654 804 674 l 804 643 q 782 480 804 517 q 766 431 774 471 q 768 396 768 414 l 768 391 q 711 363 768 377 q 657 304 711 322 q 627 252 631 252 l 619 247 l 600 247 q 541 255 588 247 l 497 244 l 489 244 q 448 250 450 250 q 402 214 423 219 l 402 184 q 429 100 402 142 q 448 52 448 60 q 421 30 441 30 q 383 35 392 35 l 372 35 l 370 16 l 370 8 q 372 -35 370 -7 q 361 -87 364 -50 q 332 -109 346 -109 l 326 -109 q 283 -100 290 -100 q 237 -133 275 -100 q 226 -136 232 -136 l 223 -136 q 155 -109 209 -136 l 155 -111 q 153 -114 155 -114 q 158 -133 158 -127 q 144 -212 158 -160 q 131 -231 144 -222 l 115 -231 q 74 -193 90 -231 q 52 -27 74 -62 q 60 0 56 0 q 41 35 43 24 q 47 76 47 58 q 44 125 47 92 q 52 209 52 166 l 52 258 q 77 342 52 342 l 82 350 l 82 366 q 77 496 77 486 l 79 524 q 52 624 52 610 q 66 659 66 648 q 41 746 66 670 q 50 803 50 783 q 44 860 50 829 q 52 887 52 882 q 31 933 31 916 l 31 936 q 104 987 31 961 m 484 705 l 481 689 q 484 610 484 641 q 473 559 484 605 l 500 559 q 519 629 515 559 q 489 705 519 655 l 484 705 m 356 632 q 359 518 359 560 l 372 513 q 432 526 432 513 l 432 534 q 413 700 425 700 l 375 700 q 356 632 365 700 z "},"Q":{"ha":1043,"x_min":31,"x_max":1013,"o":"m 508 982 l 549 982 q 844 887 707 982 q 1013 469 1013 739 l 1013 399 q 937 103 1013 245 q 931 -65 931 35 l 928 -84 l 942 -146 l 942 -179 q 1004 -233 942 -198 q 1010 -244 1004 -237 q 1002 -282 1005 -250 q 985 -285 1000 -282 q 966 -252 974 -285 l 961 -252 q 931 -260 936 -260 q 928 -258 928 -260 l 909 -260 l 877 -260 q 828 -285 871 -260 l 814 -285 q 717 -260 772 -271 q 698 -252 716 -255 l 695 -252 q 660 -285 678 -262 l 649 -285 q 627 -239 641 -285 q 522 -114 528 -114 q 465 -100 497 -100 l 446 -103 q 408 -81 435 -102 q 394 -79 403 -79 q 348 -122 389 -79 q 310 -138 331 -138 q 226 -33 267 -138 l 220 -30 l 201 -30 q 71 141 147 -30 q 31 220 31 178 l 31 222 q 36 266 31 235 q 31 458 31 389 l 31 496 q 304 947 31 822 q 508 982 403 982 m 484 382 l 484 203 q 524 184 484 184 q 559 182 558 182 q 660 212 616 203 q 698 296 698 256 l 698 328 q 692 393 698 342 q 709 469 709 465 q 703 518 703 496 q 709 543 703 530 q 679 591 701 569 l 676 591 q 652 496 652 530 q 633 399 646 399 l 630 399 q 614 429 620 399 q 616 578 616 523 l 616 600 q 606 662 616 634 l 608 678 q 587 719 587 715 q 513 694 529 719 q 486 562 486 656 q 484 382 484 498 m 418 643 q 386 646 391 646 q 351 532 375 640 q 383 431 383 442 q 345 401 383 416 q 342 396 345 396 q 380 304 342 345 l 383 277 l 383 247 q 443 198 383 216 l 443 201 q 451 393 451 382 q 443 477 451 417 q 448 602 448 558 q 446 648 446 640 q 418 643 429 643 m 869 0 q 831 -35 869 -35 q 820 -43 820 -35 q 869 -117 820 -89 l 896 -114 l 896 -111 q 890 -8 890 -21 q 869 0 884 -3 z "},"R":{"ha":994,"x_min":31,"x_max":964,"o":"m 74 977 l 112 977 q 619 949 593 977 q 782 852 729 920 q 844 654 844 781 q 798 488 844 589 q 790 326 790 399 l 790 209 q 907 19 790 184 q 964 -73 964 -63 l 964 -81 q 939 -109 964 -109 q 871 -146 939 -126 q 842 -263 857 -146 l 831 -271 l 809 -271 q 787 -222 787 -248 q 790 -146 787 -212 q 760 -90 790 -105 q 733 -79 745 -81 q 687 -182 695 -172 l 668 -182 q 635 -100 635 -174 q 608 -54 635 -81 l 608 -24 l 595 -22 q 581 -33 595 -25 l 562 -33 q 513 92 513 -1 q 484 165 503 165 q 443 241 471 179 q 386 293 407 263 q 375 187 378 197 q 383 100 383 143 q 364 11 364 64 q 386 -95 386 -72 l 386 -106 q 361 -122 376 -122 q 329 -111 348 -122 q 272 -220 288 -220 l 261 -220 q 226 -176 235 -208 q 155 -98 180 -134 q 115 -136 136 -136 q 66 -90 96 -136 q 39 -24 66 -74 l 39 -14 q 58 71 58 60 q 52 171 52 118 l 52 184 q 66 220 52 189 q 44 290 44 279 l 55 363 q 31 423 31 407 q 79 477 31 437 l 79 526 q 52 624 52 616 q 50 665 50 651 q 58 722 50 677 q 50 779 50 766 q 60 838 52 815 q 33 860 36 853 l 33 863 q 50 906 33 878 q 39 925 50 910 l 39 930 q 74 977 39 952 m 372 719 l 372 716 q 361 654 372 707 q 389 624 361 648 l 391 613 q 383 572 383 581 q 437 524 383 545 l 440 524 q 473 543 467 524 q 467 673 467 627 l 470 697 l 467 697 q 443 692 450 692 q 375 719 434 692 l 372 719 m 519 621 l 519 602 q 522 556 519 588 q 538 586 538 565 l 538 602 q 530 697 538 675 q 519 621 519 697 m 698 393 l 698 374 q 749 260 698 316 l 752 285 q 749 323 752 306 q 752 399 752 359 l 752 412 l 755 439 q 698 393 709 408 z "},"S":{"ha":861,"x_min":31,"x_max":831,"o":"m 437 964 l 475 964 q 804 888 639 964 l 804 886 l 782 834 q 790 810 790 817 l 790 804 q 749 734 790 791 l 749 647 q 728 557 749 557 l 725 557 q 663 666 680 557 q 630 699 658 699 q 532 731 589 699 l 516 731 q 492 704 498 707 l 484 704 q 435 718 477 704 q 359 671 359 694 l 359 663 q 581 519 359 613 q 782 335 753 433 q 823 240 808 245 q 831 221 831 230 l 831 213 q 798 151 831 199 q 771 -142 798 126 q 774 -172 774 -161 l 760 -183 l 755 -183 q 722 -61 730 -176 l 720 -61 q 714 -69 720 -69 l 706 -69 q 698 -53 698 -66 l 698 -45 l 692 -45 q 668 -121 692 -105 q 638 -199 654 -121 q 622 -224 628 -223 l 614 -224 q 587 -183 587 -203 l 595 -140 q 570 -91 595 -116 q 478 -126 515 -100 q 383 -153 455 -132 q 277 -137 298 -153 q 256 -107 258 -107 q 163 -159 163 -128 q 166 -197 166 -193 q 139 -216 158 -216 q 96 -161 117 -216 q 52 -37 96 -79 q 44 -12 44 -26 l 44 31 q 31 56 44 41 q 52 99 46 83 q 36 151 36 143 l 36 161 q 66 189 36 181 q 77 205 66 205 q 283 134 235 134 q 299 129 283 131 l 299 132 q 302 297 299 155 q 275 346 302 326 l 264 346 q 174 406 211 346 q 131 427 164 417 q 93 452 130 433 q 44 560 44 519 l 47 585 l 41 595 q 112 810 64 726 q 302 945 159 895 q 437 964 381 964 m 356 313 q 342 123 353 291 l 399 118 q 513 180 498 118 q 516 191 513 186 q 473 256 516 235 l 467 254 l 465 254 q 427 283 451 279 q 356 313 376 313 z "},"T":{"ha":926,"x_min":31,"x_max":896,"o":"m 199 1006 l 220 1006 q 280 977 230 1006 l 855 977 q 863 947 863 977 l 863 884 q 893 819 863 871 l 896 792 l 896 735 q 874 708 896 708 l 866 708 q 814 732 838 708 q 798 724 802 724 q 795 665 795 684 q 798 594 795 625 q 785 355 785 473 l 785 345 q 777 336 785 340 q 760 358 760 342 l 760 388 q 755 648 755 621 q 725 694 755 694 l 703 705 q 644 627 644 659 q 608 559 625 574 q 606 551 608 551 l 608 545 l 608 494 q 649 296 608 452 q 654 193 654 232 q 614 168 644 168 q 635 22 621 22 q 676 -62 676 -15 q 630 -152 669 -152 l 625 -152 q 595 -146 596 -146 q 592 -201 592 -183 q 595 -247 592 -215 q 584 -282 584 -278 q 587 -315 587 -310 l 573 -326 l 557 -326 q 503 -233 503 -326 q 486 -157 503 -157 q 465 -152 469 -152 q 432 -174 449 -174 l 429 -174 q 367 -152 415 -174 l 367 -209 q 329 -271 367 -271 q 269 -220 269 -265 l 269 -217 q 275 -168 275 -190 q 245 -117 275 -160 q 234 -8 234 -59 q 283 296 283 252 l 283 298 q 280 608 283 446 q 283 700 283 654 q 253 724 283 715 q 229 716 235 716 l 226 716 q 182 732 220 716 q 123 700 159 700 q 41 738 98 700 q 31 765 31 755 q 58 971 31 873 l 66 977 l 98 977 l 199 1006 z "},"U":{"ha":1016,"x_min":31,"x_max":985,"o":"m 288 1000 l 307 1000 q 402 935 343 1000 q 380 788 397 876 q 361 715 361 745 q 389 555 361 596 q 432 484 432 494 l 435 471 q 397 368 435 408 q 386 278 391 361 q 448 210 386 226 q 486 175 454 210 q 497 172 491 172 l 500 172 q 530 202 514 172 q 619 224 560 216 q 638 251 633 239 l 635 283 l 663 365 q 652 419 663 367 l 652 438 q 679 604 679 587 q 676 967 679 709 l 682 970 l 958 970 l 964 967 q 966 709 966 792 l 966 606 q 977 566 966 599 l 977 560 q 966 490 966 499 l 966 476 l 985 387 l 985 365 q 966 302 985 358 q 958 224 958 243 q 964 167 958 196 q 912 56 930 56 l 888 56 q 852 -9 852 35 q 858 -113 858 -100 q 820 -164 843 -164 l 817 -164 q 741 -94 790 -164 l 739 -77 q 703 -145 736 -77 l 690 -148 q 635 -113 675 -148 l 595 -113 q 570 -107 578 -107 q 522 -161 543 -161 q 440 -96 515 -161 q 394 -91 438 -94 q 359 -121 359 -98 q 310 -210 322 -210 l 299 -210 q 267 -134 267 -201 q 239 -50 260 -50 q 201 -18 229 -47 l 199 -18 q 174 -28 182 -28 l 163 -28 q 98 37 98 -11 q 52 172 78 141 l 52 186 q 66 292 66 277 q 31 425 66 318 l 31 438 q 55 522 55 511 l 55 541 q 44 661 44 633 l 44 726 q 66 867 44 740 l 66 872 q 63 967 63 926 q 85 972 73 972 l 207 972 l 288 1000 z "},"V":{"ha":1065,"x_min":31,"x_max":1034,"o":"m 760 991 q 812 975 770 991 l 1029 975 q 1034 970 1034 975 l 1034 967 q 966 715 966 746 l 961 682 q 966 639 966 660 l 937 574 q 942 522 942 557 q 928 487 942 515 q 931 245 931 291 q 947 61 942 158 l 947 56 q 937 45 947 52 l 918 45 q 893 83 903 45 q 896 191 893 108 q 893 411 893 366 l 890 435 l 885 435 q 861 308 878 413 q 833 186 845 288 q 793 140 833 165 q 774 85 774 101 l 774 75 q 777 28 774 50 q 728 -115 777 -76 q 692 -142 692 -120 q 673 -237 692 -237 l 660 -237 q 616 -153 623 -237 q 592 -164 602 -164 l 576 -164 q 527 -151 535 -151 l 516 -151 q 470 -164 470 -151 q 443 -251 470 -251 l 432 -251 q 380 -199 380 -238 q 356 -91 380 -91 q 315 -50 315 -64 q 326 -34 315 -47 l 326 -31 q 291 45 291 -2 l 291 75 q 264 110 291 85 q 229 199 245 165 q 193 381 212 381 q 180 416 180 400 l 180 452 q 131 514 180 489 q 109 593 118 524 q 93 655 93 621 l 101 720 q 39 932 101 753 q 31 967 31 958 l 36 970 l 104 970 q 329 972 187 970 q 361 918 354 972 q 397 867 361 888 q 424 826 424 840 l 418 807 q 437 785 433 798 l 429 731 q 478 682 478 724 l 478 674 q 473 636 473 645 q 484 593 484 600 q 473 528 473 536 q 503 457 473 483 q 535 381 511 441 l 541 381 l 541 387 q 527 416 541 397 l 527 433 q 578 514 578 488 q 646 726 578 555 q 673 812 673 804 q 668 850 668 848 l 679 913 q 676 959 676 945 q 728 991 690 991 l 760 991 z "},"W":{"ha":1496,"x_min":31,"x_max":1466,"o":"m 1457 970 q 1466 962 1461 970 l 1466 956 q 1390 595 1398 650 l 1390 549 q 1400 509 1390 542 l 1400 503 q 1354 408 1400 446 q 1341 346 1341 385 q 1357 294 1357 311 q 1335 213 1348 217 q 1278 107 1286 144 l 1278 104 q 1286 -56 1286 -16 q 1259 -180 1286 -180 q 1238 -316 1244 -304 l 1232 -319 l 1224 -319 q 1194 -259 1194 -319 q 1159 -123 1181 -235 l 1154 -123 q 1135 -205 1143 -123 l 1129 -208 l 1118 -208 q 1072 -161 1097 -208 q 1061 -134 1067 -134 l 1026 -134 q 969 -232 992 -165 l 958 -240 l 950 -240 q 888 -102 888 -240 q 850 -45 850 -77 q 825 56 841 56 q 804 145 804 56 l 804 235 q 766 381 804 252 q 744 422 766 387 l 741 422 q 690 213 724 422 q 695 175 690 199 q 679 34 679 79 l 698 -77 q 654 -121 686 -121 q 625 -123 645 -123 l 622 -123 l 622 -159 q 581 -237 615 -237 l 573 -237 q 508 -172 508 -219 q 456 -121 504 -172 q 435 -110 441 -110 q 370 -137 414 -137 q 361 -140 370 -140 l 345 -140 q 253 -77 305 -140 q 248 -53 248 -60 l 248 -50 q 264 -1 248 -41 l 264 1 q 166 395 264 25 l 163 395 q 134 294 134 380 q 115 235 123 235 l 106 235 q 77 378 87 235 l 79 403 q 68 438 68 428 l 68 457 q 58 661 58 614 q 36 804 47 687 l 36 818 q 44 823 36 823 q 36 897 36 883 q 39 905 36 899 q 31 951 31 935 q 47 959 33 959 l 294 959 q 332 810 304 959 l 427 400 q 462 359 442 375 q 505 419 499 359 q 527 538 527 518 l 527 549 q 522 677 527 589 q 576 845 522 701 q 630 962 623 961 q 641 964 635 964 l 725 964 q 863 967 774 964 q 893 916 886 967 q 956 715 937 715 q 1010 680 956 711 q 1021 650 1021 662 q 999 568 999 597 q 1031 332 999 436 l 1042 332 q 1078 397 1064 332 q 1121 595 1091 428 l 1121 604 q 1110 680 1121 614 q 1145 818 1145 789 q 1181 891 1181 835 q 1208 970 1194 970 l 1457 970 z "},"X":{"ha":1100,"x_min":31,"x_max":1069,"o":"m 125 983 l 139 983 q 196 962 149 983 l 210 962 q 367 964 258 962 q 424 894 380 964 q 527 747 494 854 q 541 726 537 726 q 622 821 561 767 q 673 902 642 902 q 717 967 688 913 q 722 970 722 967 l 1013 975 q 1015 967 1015 970 q 950 845 950 861 l 950 821 q 918 772 926 794 q 896 753 896 756 l 896 750 q 904 718 904 724 l 904 693 q 885 454 893 659 q 874 357 874 404 l 874 275 q 904 194 874 218 q 983 85 949 115 q 1037 50 983 60 q 1069 -4 1069 24 l 1069 -18 q 1023 -47 1057 -39 l 1023 -53 q 1026 -83 1023 -64 q 996 -99 1026 -99 q 939 -58 979 -90 l 934 -58 q 912 -61 923 -58 q 836 -20 866 -61 l 831 -20 l 831 -37 q 790 -85 831 -85 q 774 -178 783 -85 l 766 -183 l 758 -183 q 728 -80 728 -183 q 641 75 680 75 q 584 194 584 102 l 565 243 l 559 243 q 530 178 555 240 q 413 61 481 86 q 378 -23 378 35 q 318 -80 357 -80 q 264 -58 312 -80 l 258 -58 q 226 -69 229 -69 l 215 -69 q 163 -47 199 -69 q 123 -110 136 -110 q 85 -129 93 -110 q 68 -134 76 -134 q 31 -99 31 -121 q 98 53 31 -1 q 188 205 188 176 q 193 359 193 279 q 163 403 193 361 l 161 419 l 161 435 q 185 495 185 459 l 185 568 q 191 685 185 604 l 191 693 l 188 693 q 155 509 174 531 q 144 498 155 505 l 139 498 q 134 506 134 498 q 139 574 139 564 l 139 593 q 93 897 139 849 q 77 918 81 903 q 125 983 77 969 m 272 639 q 245 560 272 622 l 245 547 q 239 463 245 512 q 275 414 275 425 q 277 403 277 409 q 250 313 250 361 l 250 305 q 310 406 268 305 q 340 460 340 443 q 302 587 315 573 q 277 639 292 600 l 272 639 m 825 620 q 814 525 825 579 q 812 330 814 472 q 839 286 812 311 l 839 305 q 842 338 839 330 q 839 381 839 359 q 828 620 839 495 l 825 620 m 733 449 q 787 362 733 427 q 790 457 790 426 l 790 495 l 787 495 q 733 449 733 469 z "},"Y":{"ha":994,"x_min":31,"x_max":964,"o":"m 679 1008 l 684 1008 q 774 986 753 986 q 918 989 897 989 q 964 951 964 981 l 964 943 q 923 883 945 929 q 885 802 885 865 q 877 777 881 802 q 888 731 888 743 q 852 620 869 620 l 850 620 q 801 655 833 620 l 795 658 q 774 633 778 658 l 774 574 q 752 509 753 530 q 701 414 722 414 l 692 414 l 673 416 l 625 202 l 625 183 q 649 121 625 174 q 665 20 665 50 q 654 -47 661 -47 q 619 -96 619 -70 l 619 -132 q 595 -183 619 -168 l 584 -183 q 562 -121 568 -183 q 522 -37 543 -37 q 451 -20 507 -37 q 413 -42 413 -20 l 413 -45 q 416 -99 413 -68 q 389 -132 412 -132 l 378 -132 q 329 -75 334 -132 q 326 -39 326 -75 l 326 -12 q 296 58 326 -5 q 291 102 291 70 q 329 216 302 216 q 340 229 340 223 q 261 463 297 420 q 231 590 242 559 l 229 590 q 210 476 215 570 q 212 460 212 462 q 199 444 209 449 l 196 444 q 174 533 174 444 l 174 614 q 153 704 171 695 q 87 783 87 728 q 52 891 77 846 l 31 970 l 33 975 q 302 981 220 978 q 359 886 323 981 q 456 720 431 726 l 459 720 q 522 812 484 720 q 584 848 549 841 l 587 853 l 587 872 q 619 940 587 905 q 668 1005 619 1005 q 679 1008 668 1008 z "},"Z":{"ha":910,"x_min":31,"x_max":880,"o":"m 294 977 l 817 977 q 844 928 844 941 q 842 901 842 904 q 852 863 852 871 q 817 743 852 844 q 814 713 814 720 q 820 562 820 608 q 804 556 811 556 q 755 665 755 569 l 749 665 q 671 559 724 615 q 649 548 664 559 q 657 526 657 534 q 606 401 657 439 q 500 363 606 391 q 446 277 446 295 l 446 274 q 462 231 446 240 l 473 231 q 541 258 483 231 l 551 258 q 638 222 585 258 q 652 217 638 217 l 725 217 q 771 241 739 217 q 874 217 874 241 q 880 203 880 217 l 880 198 l 855 133 q 861 106 858 111 q 852 68 852 74 l 852 57 l 869 -19 q 828 -111 852 -69 q 806 -190 828 -174 l 801 -190 q 771 -152 777 -190 l 771 -35 q 763 -19 771 -21 l 760 -19 q 720 -52 747 -52 q 684 -22 705 -52 q 673 -16 673 -20 q 627 -98 655 -16 q 608 -106 617 -106 l 597 -106 q 503 -16 547 -60 l 494 -16 q 467 -127 480 -16 q 470 -190 470 -177 q 459 -203 465 -202 l 451 -203 q 399 -90 405 -203 q 380 -11 395 -11 l 372 -11 q 294 -43 320 -11 l 283 -43 l 250 -38 q 207 -57 222 -57 l 196 -57 l 136 -33 q 101 -81 109 -78 l 90 -81 q 31 24 50 -81 l 31 33 q 44 152 40 147 q 196 361 64 169 q 378 621 378 607 q 397 716 397 693 l 394 735 l 375 735 q 348 662 363 662 q 321 711 321 662 q 323 738 323 719 q 302 743 313 743 l 299 743 q 258 724 277 724 l 204 732 l 199 732 q 134 686 139 697 q 120 553 132 553 q 109 548 113 548 l 112 543 l 112 534 q 106 529 112 529 l 98 529 q 93 534 93 529 l 93 589 q 41 776 93 615 q 58 833 41 802 q 55 873 55 860 q 68 939 68 925 l 68 968 l 71 974 q 294 977 212 977 z "},"[":{"ha":514,"x_min":0,"x_max":0,"o":""},"\\":{"ha":386,"x_min":0,"x_max":0,"o":""},"]":{"ha":514,"x_min":0,"x_max":0,"o":""},"^":{"ha":688,"x_min":0,"x_max":0,"o":""},"_":{"ha":694,"x_min":0,"x_max":0,"o":""},"`":{"ha":694,"x_min":0,"x_max":0,"o":""},"a":{"ha":1086,"x_min":31,"x_max":1056,"o":"m 405 975 l 418 975 q 473 967 433 975 q 744 970 687 970 q 842 661 755 960 q 920 406 847 649 q 975 308 975 384 q 977 264 975 292 q 975 235 975 250 q 1056 -42 977 214 l 1056 -53 q 1021 -104 1056 -104 l 1007 -107 q 956 -50 1000 -107 q 904 -39 932 -39 q 855 -53 901 -39 l 842 -53 l 842 -75 q 790 -142 842 -103 l 779 -142 q 736 -69 751 -142 l 736 -56 q 741 4 736 -44 q 720 66 741 20 l 720 107 q 676 161 720 131 q 614 134 614 154 q 557 99 595 110 q 494 151 537 99 l 489 153 q 429 99 429 153 q 397 64 429 64 q 334 -58 367 64 q 304 -110 334 -110 l 291 -110 q 242 -42 256 -110 q 174 -77 194 -77 l 172 -77 q 104 -31 149 -76 l 98 -31 q 71 -99 90 -31 l 58 -107 q 31 -66 36 -107 l 31 -20 q 299 715 68 60 q 307 742 307 724 l 307 780 q 340 937 307 840 q 405 975 366 975 m 543 690 q 456 384 456 411 l 527 384 q 562 389 550 384 q 565 517 565 475 l 565 533 q 546 636 565 612 l 546 642 q 554 688 554 680 l 549 690 l 543 690 m 606 574 l 603 547 q 600 438 603 522 q 592 411 592 425 l 592 387 q 622 384 616 384 q 654 392 654 385 q 606 574 614 574 z "},"b":{"ha":856,"x_min":31,"x_max":825,"o":"m 473 975 q 798 826 724 975 q 814 720 810 804 q 785 557 814 602 q 741 506 766 506 l 736 506 l 687 522 q 654 511 660 511 l 654 506 q 782 430 741 484 q 825 294 825 374 l 825 267 q 790 132 825 215 q 755 56 790 73 q 706 9 706 21 q 660 -104 660 -97 q 625 -142 652 -142 l 614 -142 q 559 -83 578 -142 q 562 -37 562 -51 q 557 -23 557 -28 l 549 -23 q 508 -61 549 -51 l 494 -61 q 416 -39 450 -61 l 413 -39 q 348 -80 409 -39 l 334 -83 q 215 -31 239 -31 q 153 -69 168 -31 q 106 -102 140 -102 l 87 -102 q 41 -42 56 -102 l 52 514 q 47 552 47 543 l 47 560 l 58 633 q 36 774 36 739 q 31 793 31 774 l 31 804 q 60 878 31 814 q 63 937 63 918 l 63 962 l 68 970 q 473 975 269 975 m 332 715 l 332 636 q 329 595 332 623 q 359 593 344 595 q 511 631 488 593 q 530 693 530 653 q 511 736 530 720 q 459 704 485 704 l 451 704 q 394 764 429 704 l 389 766 l 383 766 q 361 728 378 766 q 332 715 347 715 m 323 359 q 321 237 321 277 l 321 191 l 418 191 l 418 194 q 421 221 418 220 q 418 273 418 251 l 418 340 l 405 338 l 394 338 q 345 362 389 338 l 342 362 l 323 359 m 475 357 q 456 199 456 310 q 459 197 459 199 q 532 254 505 197 l 532 256 q 494 335 494 303 q 475 357 484 355 z "},"c":{"ha":883,"x_min":31,"x_max":852,"o":"m 522 963 l 568 963 q 852 895 707 963 l 852 890 q 844 770 852 852 q 847 713 847 735 q 814 458 838 458 l 806 458 q 774 529 789 466 q 752 629 758 529 q 695 656 746 637 q 673 684 677 684 q 641 670 650 670 l 627 670 q 573 692 613 670 q 513 534 513 610 q 511 420 513 493 q 513 279 513 349 l 516 274 q 511 212 511 260 l 511 168 l 524 165 l 559 165 q 806 225 649 165 q 825 138 814 138 q 836 84 836 109 l 836 81 q 809 24 836 59 l 806 -3 q 809 -57 809 -33 q 777 -103 809 -103 q 714 -68 753 -103 l 711 -68 q 646 -65 696 -68 q 557 -133 622 -65 l 538 -136 l 524 -136 q 437 -100 500 -136 q 402 -92 418 -92 q 364 -106 378 -106 l 353 -106 q 269 -38 334 -106 q 242 -43 245 -43 q 144 14 164 -43 q 115 73 129 73 q 50 198 104 73 q 44 236 44 218 l 44 252 q 50 312 44 264 q 31 396 50 326 q 33 407 31 402 q 31 472 31 445 l 31 483 q 134 765 31 575 q 372 939 220 889 q 522 963 454 963 m 329 453 l 329 423 q 443 184 329 242 q 478 174 463 176 l 478 176 q 484 307 478 220 q 437 429 484 371 q 435 450 435 444 q 462 551 462 530 q 421 670 462 580 l 405 684 q 329 453 329 603 z "},"d":{"ha":1005,"x_min":31,"x_max":975,"o":"m 71 974 l 418 974 q 880 757 749 974 q 934 667 905 745 l 934 656 l 926 616 q 975 429 958 462 l 975 423 q 934 350 975 402 q 926 182 929 332 q 909 109 916 109 q 885 236 892 109 l 882 236 q 814 8 814 80 q 793 -76 814 -68 l 787 -76 q 755 5 755 -76 q 752 54 752 31 q 698 -16 741 50 q 638 -46 662 -46 l 622 -46 q 516 -22 611 -46 q 513 -24 513 -22 q 473 -81 503 -64 q 432 -95 437 -95 l 416 -95 q 332 -24 391 -95 l 323 -24 q 245 -68 279 -68 l 234 -68 q 158 -30 215 -68 q 125 -79 137 -30 q 101 -92 111 -92 l 93 -92 q 41 35 41 -92 q 39 76 39 52 q 44 190 44 162 q 39 258 39 248 q 63 334 39 281 l 63 347 q 36 475 63 379 l 36 483 q 63 627 36 510 q 66 678 66 663 q 31 784 66 702 l 31 803 q 63 871 31 821 q 66 892 66 882 l 66 968 q 71 974 66 974 m 345 724 l 345 665 q 391 526 345 597 q 437 445 422 509 l 437 429 q 416 388 437 421 q 408 361 411 378 q 410 290 410 315 l 410 258 q 408 203 410 240 l 410 203 q 614 317 559 203 q 644 477 644 397 l 644 499 q 573 705 644 644 q 519 496 541 640 l 511 491 l 503 491 q 467 564 473 491 q 421 732 460 709 q 383 757 401 757 l 378 757 q 345 724 345 757 m 364 345 q 345 290 345 304 l 345 203 l 367 203 l 367 345 l 364 345 z "},"e":{"ha":709,"x_min":31,"x_max":679,"o":"m 109 1005 l 117 1005 q 158 978 127 1005 q 188 972 162 975 q 258 975 241 975 q 304 972 296 972 q 367 1002 313 972 l 370 1002 q 478 978 478 996 q 500 972 488 972 l 644 972 q 668 954 668 972 l 668 764 q 627 720 630 720 l 625 720 q 589 742 616 720 q 541 693 574 693 q 500 720 534 693 q 440 750 483 720 q 416 753 425 753 l 413 753 q 351 718 376 720 q 356 642 353 703 l 359 642 q 489 604 403 642 l 616 604 q 646 598 635 604 q 649 430 649 486 l 649 368 q 606 319 649 346 q 603 311 606 311 l 606 297 l 606 229 q 611 202 606 202 q 676 194 676 202 l 679 178 l 679 -18 q 663 -110 663 -81 l 663 -132 l 665 -151 q 635 -156 654 -156 q 611 -72 617 -130 q 592 -34 601 -34 q 503 -102 561 -34 q 486 -107 494 -107 q 397 -50 437 -107 l 394 -50 q 337 -94 379 -50 q 310 -102 323 -102 l 307 -102 q 234 -66 290 -102 l 231 -66 q 193 -115 213 -115 q 182 -118 189 -118 q 134 -58 164 -115 l 131 -58 q 109 -66 117 -66 l 101 -66 q 33 -7 54 -66 q 31 23 31 12 l 31 28 q 63 121 31 55 l 63 340 q 60 528 63 408 q 31 582 31 561 l 31 601 q 50 772 50 745 q 41 907 50 779 q 47 926 41 913 q 44 956 44 945 q 109 1005 44 985 m 345 387 l 345 270 q 432 202 345 202 l 568 202 q 573 281 573 254 q 546 362 573 362 q 519 381 546 368 q 443 343 469 343 q 375 387 408 343 l 345 387 z "},"f":{"ha":734,"x_min":31,"x_max":703,"o":"m 134 1009 q 226 977 142 1009 q 242 974 240 974 q 654 971 522 971 q 687 952 687 971 q 703 844 687 937 l 703 822 q 676 708 698 708 l 665 708 q 614 738 629 722 q 543 719 566 719 q 508 732 536 719 q 446 667 486 680 q 405 643 429 643 l 367 643 l 367 572 l 394 570 l 654 570 q 671 564 662 570 l 676 366 q 630 304 676 356 q 578 250 608 250 l 570 250 q 511 317 553 250 q 475 342 506 317 q 402 271 402 309 q 375 195 375 208 q 378 -3 378 60 q 372 -27 378 -14 l 375 -43 l 375 -46 q 337 -76 352 -76 l 302 -76 q 291 -79 296 -76 q 234 -41 277 -79 l 226 -41 q 166 -92 166 -59 q 144 -109 161 -109 l 120 -109 q 82 -60 92 -109 l 87 125 q 71 193 71 163 l 71 222 q 79 296 79 282 q 58 426 58 400 l 58 434 q 74 537 74 506 q 90 635 74 557 l 90 675 q 66 768 90 688 q 31 920 50 850 l 31 933 q 115 1009 54 1009 l 134 1009 z "},"g":{"ha":956,"x_min":31,"x_max":926,"o":"m 511 987 l 565 987 q 869 922 718 987 q 885 871 885 900 l 885 865 q 861 792 885 859 q 863 730 863 743 q 823 651 863 687 l 806 608 l 806 586 l 809 567 l 828 567 q 901 564 851 567 q 909 556 901 560 q 926 33 926 123 q 890 -57 890 -14 q 861 -146 890 -146 q 779 -33 831 -146 q 766 -14 768 -14 l 758 -14 q 671 -68 735 -14 q 606 -90 625 -90 q 473 -54 593 -90 l 470 -54 q 399 -157 457 -54 q 389 -176 396 -176 l 367 -176 q 334 -95 350 -176 q 272 -30 313 -50 q 204 87 224 23 q 144 119 189 106 q 47 290 47 210 q 31 393 31 349 l 31 437 l 39 464 l 39 529 q 313 952 39 837 q 511 987 421 987 m 323 494 q 470 214 323 279 l 475 214 q 484 277 484 241 l 484 320 q 448 369 484 334 l 448 377 q 459 469 459 449 l 459 543 q 484 570 463 570 l 511 570 q 766 567 604 570 q 774 570 771 570 q 714 703 774 624 q 603 722 673 722 q 530 697 557 697 l 527 697 q 448 746 507 697 q 323 494 323 692 m 543 317 l 543 296 q 589 198 551 198 q 665 241 665 210 l 665 260 q 592 328 665 308 l 578 328 q 543 317 543 326 z "},"h":{"ha":986,"x_min":31,"x_max":956,"o":"m 264 1017 q 342 968 342 1000 l 342 958 q 318 920 342 944 q 359 787 359 815 q 337 741 359 779 q 332 697 335 737 q 451 618 332 632 l 546 618 q 589 722 555 618 l 589 724 q 568 814 568 804 q 611 901 568 839 q 616 930 616 929 q 614 963 614 949 q 638 977 614 977 l 861 977 q 890 939 890 977 q 939 743 890 791 l 942 727 l 942 724 l 909 654 q 904 583 904 618 l 904 559 q 953 244 904 416 q 956 198 956 223 l 956 174 q 931 27 956 105 l 928 14 q 931 -3 931 -1 q 904 -43 931 -27 l 871 -41 q 850 -90 853 -41 q 825 -109 840 -109 l 820 -109 q 771 -46 790 -109 q 763 -43 768 -46 q 711 -84 749 -51 l 695 -87 q 622 -38 660 -87 q 606 -5 606 -15 l 606 5 q 625 114 625 73 q 619 195 625 130 l 622 222 q 619 293 619 253 l 619 307 l 616 320 q 608 304 608 317 l 608 298 q 611 269 608 287 q 595 247 604 247 q 549 307 571 247 l 543 309 l 527 309 q 522 220 522 248 l 522 209 q 497 174 517 174 q 465 244 465 174 q 440 369 462 369 q 397 396 411 396 q 342 334 342 374 q 353 14 342 287 q 280 -52 317 -52 l 272 -52 q 177 -22 229 -52 l 174 -22 q 142 -54 174 -36 q 44 22 76 -54 l 44 62 l 31 165 q 47 233 47 203 q 31 326 47 249 l 31 328 l 47 372 q 41 450 41 420 q 52 681 52 587 q 44 979 52 711 l 55 987 l 74 987 q 166 985 110 987 l 264 1017 z "},"i":{"ha":449,"x_min":31,"x_max":418,"o":"m 106 993 l 120 993 q 193 974 132 993 l 367 974 q 375 960 371 974 q 367 722 370 766 q 413 613 367 683 q 418 581 418 594 l 418 570 q 370 477 418 517 q 361 475 364 475 l 356 347 q 391 285 360 323 l 394 269 l 394 266 q 356 176 387 210 l 356 168 q 351 -41 356 94 q 286 -84 330 -43 q 267 -92 272 -92 q 231 -79 258 -92 q 210 -206 224 -79 q 174 -231 191 -231 l 163 -231 q 131 -190 140 -231 q 136 -111 136 -127 l 136 -100 q 96 -84 136 -95 q 63 -38 72 -75 q 55 8 55 -7 q 60 38 55 13 l 58 43 l 60 57 q 47 133 47 105 q 50 206 47 164 q 47 231 47 221 l 68 336 l 68 345 q 60 380 68 351 q 85 559 66 448 l 85 629 q 60 697 85 637 q 58 719 58 708 l 58 749 q 31 841 31 812 l 31 854 q 60 930 31 890 q 87 990 60 990 q 106 993 91 993 z "},"j":{"ha":677,"x_min":31,"x_max":646,"o":"m 332 966 l 595 966 q 600 960 600 965 l 600 917 q 597 879 600 896 q 603 819 603 829 l 597 732 q 635 648 597 692 q 646 602 646 621 l 646 581 q 627 453 627 493 l 627 429 q 622 304 627 320 l 625 288 l 625 277 q 578 43 625 79 q 554 22 568 43 l 554 19 q 565 -27 554 14 q 527 -114 552 -114 q 492 -217 492 -142 q 451 -285 479 -267 l 443 -285 q 399 -241 412 -285 l 402 -222 l 402 -184 l 383 -184 q 321 -228 361 -184 q 258 -250 290 -250 l 250 -250 q 153 -214 214 -250 l 150 -214 q 98 -228 117 -228 l 96 -228 q 31 -160 45 -228 l 31 -146 q 47 -92 31 -137 q 39 -43 39 -57 l 39 -30 q 79 3 39 -3 q 174 -11 140 -11 q 275 43 247 -11 q 291 103 291 83 q 264 138 284 117 q 258 174 258 151 l 258 193 q 296 288 258 261 q 307 415 307 319 q 275 545 307 457 q 272 583 272 568 l 272 637 q 275 692 272 662 q 269 754 272 703 q 304 849 269 776 q 323 914 304 871 q 326 947 326 928 l 326 960 q 332 966 327 966 m 578 288 l 578 193 q 592 184 578 186 l 592 187 q 595 285 592 224 q 592 369 592 335 l 589 369 q 578 288 578 369 z "},"k":{"ha":991,"x_min":31,"x_max":961,"o":"m 104 993 l 123 993 q 182 966 137 993 l 359 966 q 370 795 370 966 q 367 732 367 745 q 380 627 372 702 q 465 713 454 713 q 511 754 494 713 q 663 966 660 966 q 673 968 667 968 l 771 968 q 945 971 832 968 q 961 963 961 968 l 961 960 q 942 857 947 960 q 926 814 926 845 l 926 732 q 912 689 912 714 q 896 684 903 684 q 880 711 880 694 l 880 776 l 877 776 q 823 722 877 759 l 820 703 l 820 684 l 782 651 q 777 524 777 618 l 777 496 q 798 212 789 212 q 950 -73 950 -48 l 950 -84 q 926 -114 950 -114 q 896 -90 922 -114 l 877 -90 l 877 -117 q 844 -190 877 -170 l 831 -190 q 787 -146 810 -190 q 752 -62 787 -123 q 698 -119 717 -119 l 682 -119 q 619 -65 656 -119 l 614 -62 l 597 -65 q 541 33 541 -27 q 503 152 527 69 q 456 247 456 188 q 421 315 456 290 q 380 279 380 306 q 375 239 375 254 l 375 231 q 380 193 375 213 q 353 87 380 182 l 353 -3 q 313 -122 353 -122 q 272 -68 298 -122 l 253 -62 q 239 -152 242 -62 q 204 -187 229 -187 q 161 -144 182 -187 l 155 -127 l 158 -111 l 158 -106 q 153 -100 158 -100 q 123 -127 140 -127 q 52 -57 85 -127 l 52 -38 q 58 16 52 -36 q 31 195 31 87 q 60 326 50 267 l 58 350 q 77 456 58 368 q 55 526 77 490 q 39 608 39 574 q 82 760 39 626 l 82 784 q 55 857 82 834 q 60 944 60 917 q 55 966 55 954 q 104 993 55 993 m 668 507 l 668 505 q 703 391 668 455 l 744 363 l 747 363 l 747 374 q 741 621 747 488 l 739 621 q 720 572 724 621 q 673 532 709 559 q 668 507 668 514 z "},"l":{"ha":796,"x_min":31,"x_max":766,"o":"m 98 974 l 370 974 q 375 968 375 973 q 372 534 372 659 q 378 339 378 374 q 478 217 378 266 q 597 250 532 250 q 638 220 622 242 q 671 174 656 185 l 760 174 q 766 168 766 173 l 766 -38 q 706 -100 766 -82 q 695 -125 695 -104 l 695 -160 q 657 -217 686 -217 l 652 -217 q 614 -152 614 -209 l 614 -106 q 603 -87 614 -91 l 597 -87 l 522 -122 l 492 -127 q 408 -81 454 -127 l 394 -81 q 348 -103 348 -87 q 318 -152 336 -152 q 253 -92 253 -135 l 253 -87 q 204 -71 214 -71 q 150 -100 157 -100 q 41 -33 85 -100 q 66 125 66 104 q 52 217 55 158 q 36 255 41 233 q 50 350 36 271 l 50 355 q 31 439 50 377 l 31 450 q 44 518 44 499 l 44 521 l 33 570 l 60 651 q 63 681 63 669 q 60 751 63 700 q 87 890 69 868 q 90 903 90 895 l 90 958 q 98 974 92 974 z "},"m":{"ha":1344,"x_min":31,"x_max":1314,"o":"m 87 975 l 440 975 q 473 910 463 975 q 625 408 608 454 q 660 365 647 365 l 660 368 q 706 503 685 392 l 739 582 l 733 601 q 801 699 733 631 q 874 943 812 713 q 890 975 884 975 l 1257 975 q 1265 959 1265 972 l 1265 549 q 1297 349 1265 384 q 1303 308 1303 323 l 1303 270 q 1276 107 1303 198 l 1314 4 l 1314 -1 q 1267 -88 1314 -20 l 1267 -91 q 1273 -115 1273 -111 q 1232 -164 1249 -164 q 1167 -107 1186 -164 l 1167 -99 q 1121 -102 1135 -102 l 1107 -94 l 1105 -94 q 1048 -194 1099 -194 l 1037 -194 q 1004 -151 1004 -174 l 1004 -91 q 977 -50 977 -64 l 977 -42 q 983 -18 977 -35 q 980 28 980 20 q 996 102 980 51 l 991 137 l 999 189 l 996 216 q 1004 313 1004 282 l 1004 435 q 985 487 1004 459 l 983 487 q 947 340 947 430 q 923 134 932 340 q 937 31 937 50 q 920 -4 937 8 l 918 -4 q 880 34 880 1 q 888 56 880 41 q 882 151 888 81 q 885 159 885 156 l 880 205 q 836 53 863 180 q 833 28 833 53 l 833 -34 l 793 -218 l 785 -224 l 766 -224 q 747 -208 751 -208 q 752 -180 748 -180 q 744 -102 747 -165 q 725 -99 736 -102 q 687 -140 725 -125 l 676 -140 q 622 -104 661 -140 q 589 -145 617 -104 q 578 -148 585 -148 q 543 -134 568 -148 l 543 -167 q 530 -189 543 -182 l 519 -189 q 481 -110 481 -189 q 459 58 459 -7 q 402 142 402 58 q 394 316 398 142 l 356 463 q 351 471 356 471 l 348 471 q 329 403 329 439 l 329 -47 q 288 -83 298 -83 l 269 -80 q 256 -175 256 -103 q 226 -194 249 -194 q 185 -134 185 -177 q 166 -61 176 -61 q 163 -69 166 -64 q 166 -121 166 -106 q 139 -142 159 -142 q 58 -47 109 -141 q 36 -12 36 -26 l 36 -4 q 52 39 52 31 q 36 113 36 86 l 36 129 q 52 180 36 138 l 52 183 q 39 218 39 216 l 50 373 l 36 427 q 63 555 63 539 q 41 644 60 585 q 60 696 41 664 q 31 766 31 732 l 31 769 q 58 888 31 842 q 87 975 71 975 z "},"n":{"ha":1133,"x_min":31,"x_max":1102,"o":"m 975 1008 q 1078 948 1078 981 q 1072 888 1072 900 l 1072 869 q 1078 788 1072 847 q 1067 731 1078 775 q 1102 671 1102 691 l 1102 663 q 1069 549 1069 587 l 1069 525 q 1080 454 1080 465 l 1080 419 q 1061 273 1080 309 l 1059 259 q 1083 175 1059 214 q 1088 140 1088 163 l 1088 39 q 1094 18 1094 20 l 1094 9 q 1072 -56 1094 -9 q 1034 -292 1063 -270 l 1031 -292 q 980 -148 989 -292 q 928 -104 980 -132 q 888 -153 915 -138 l 880 -153 q 804 -102 848 -153 q 782 -99 789 -99 q 760 -113 768 -99 l 760 -140 q 736 -159 746 -159 q 682 -99 682 -127 q 630 -1 652 -77 q 578 91 578 80 q 519 170 578 113 q 486 218 519 174 q 475 189 475 204 l 475 66 q 467 45 475 47 l 456 45 q 432 123 439 45 q 437 189 437 174 l 437 194 l 421 408 q 402 495 402 456 q 315 661 326 633 l 310 661 l 310 658 q 337 471 315 471 q 342 452 342 460 q 332 164 342 373 q 351 18 343 18 q 378 -53 358 13 q 329 -113 359 -98 l 318 -115 l 318 -148 q 296 -180 318 -162 q 261 -140 267 -180 l 261 -132 l 258 -132 q 223 -208 223 -132 q 180 -275 212 -275 q 125 -148 125 -247 l 125 -134 l 123 -115 q 74 -140 88 -140 l 68 -140 q 36 -69 36 -128 l 36 -7 q 68 126 36 30 l 68 140 q 44 218 44 190 q 55 321 55 309 q 39 419 39 391 l 39 427 q 47 476 39 446 q 31 557 31 547 l 31 585 q 50 644 50 634 q 47 726 50 656 q 68 783 47 734 l 68 967 q 74 972 69 972 l 416 972 q 467 910 446 972 q 701 476 471 909 l 739 435 l 758 435 q 777 446 777 435 q 804 530 777 481 l 804 536 q 787 650 804 650 l 787 652 l 790 690 q 768 734 768 721 l 777 793 q 771 829 774 826 q 801 872 771 837 l 801 964 q 806 970 802 970 l 915 970 q 975 1008 935 970 z "},"o":{"ha":1133,"x_min":31,"x_max":1102,"o":"m 535 964 l 584 964 q 836 905 701 964 q 928 848 878 905 q 994 753 933 812 q 1004 709 997 753 q 1056 530 1026 671 q 1083 454 1083 521 q 1102 373 1102 392 l 1102 357 q 1053 286 1102 328 q 1026 113 1038 262 q 1002 9 1026 62 q 972 -47 1002 -47 q 934 -4 957 -41 l 934 4 l 937 31 l 928 31 l 901 -18 q 809 -91 901 -22 q 755 -134 776 -134 l 752 -134 q 701 -107 736 -134 q 684 -104 696 -104 q 654 -140 665 -104 q 630 -175 630 -153 q 603 -264 626 -264 l 581 -264 q 538 -164 538 -264 q 535 -113 535 -138 l 511 -113 q 451 -159 477 -159 q 342 -85 407 -159 l 329 -50 l 307 -91 q 269 -107 288 -107 l 264 -107 q 188 -28 221 -107 q 131 91 188 64 q 63 245 63 233 q 66 275 66 264 l 66 286 q 36 357 66 296 q 31 387 31 368 l 31 403 q 66 511 31 437 q 174 815 66 660 q 535 964 308 964 m 516 536 q 519 471 516 520 q 500 332 516 430 q 511 151 502 151 q 576 145 535 145 l 587 145 q 747 275 713 145 l 747 278 q 709 595 747 520 q 695 620 705 620 q 665 609 679 609 q 603 669 603 636 q 578 699 583 699 l 559 699 q 538 658 538 699 q 516 536 516 585 m 424 669 q 364 498 396 639 l 361 460 q 470 170 361 224 l 470 172 q 465 273 465 252 q 467 338 465 322 q 465 460 465 401 l 465 552 q 440 666 465 666 q 424 669 438 666 z "},"p":{"ha":834,"x_min":31,"x_max":804,"o":"m 104 987 l 117 987 q 177 968 157 968 l 361 968 q 684 895 601 968 q 795 722 763 840 q 804 654 804 674 l 804 643 q 782 480 804 517 q 766 431 774 471 q 768 396 768 414 l 768 391 q 711 363 768 377 q 657 304 711 322 q 627 252 631 252 l 619 247 l 600 247 q 541 255 588 247 l 497 244 l 489 244 q 448 250 450 250 q 402 214 423 219 l 402 184 q 429 100 402 142 q 448 52 448 60 q 421 30 441 30 q 383 35 392 35 l 372 35 l 370 16 l 370 8 q 372 -35 370 -7 q 361 -87 364 -50 q 332 -109 346 -109 l 326 -109 q 283 -100 290 -100 q 237 -133 275 -100 q 226 -136 232 -136 l 223 -136 q 155 -109 209 -136 l 155 -111 q 153 -114 155 -114 q 158 -133 158 -127 q 144 -212 158 -160 q 131 -231 144 -222 l 115 -231 q 74 -193 90 -231 q 52 -27 74 -62 q 60 0 56 0 q 41 35 43 24 q 47 76 47 58 q 44 125 47 92 q 52 209 52 166 l 52 258 q 77 342 52 342 l 82 350 l 82 366 q 77 496 77 486 l 79 524 q 52 624 52 610 q 66 659 66 648 q 41 746 66 670 q 50 803 50 783 q 44 860 50 829 q 52 887 52 882 q 31 933 31 916 l 31 936 q 104 987 31 961 m 484 705 l 481 689 q 484 610 484 641 q 473 559 484 605 l 500 559 q 519 629 515 559 q 489 705 519 655 l 484 705 m 356 632 q 359 518 359 560 l 372 513 q 432 526 432 513 l 432 534 q 413 700 425 700 l 375 700 q 356 632 365 700 z "},"q":{"ha":1043,"x_min":31,"x_max":1013,"o":"m 508 982 l 549 982 q 844 887 707 982 q 1013 469 1013 739 l 1013 399 q 937 103 1013 245 q 931 -65 931 35 l 928 -84 l 942 -146 l 942 -179 q 1004 -233 942 -198 q 1010 -244 1004 -237 q 1002 -282 1005 -250 q 985 -285 1000 -282 q 966 -252 974 -285 l 961 -252 q 931 -260 936 -260 q 928 -258 928 -260 l 909 -260 l 877 -260 q 828 -285 871 -260 l 814 -285 q 717 -260 772 -271 q 698 -252 716 -255 l 695 -252 q 660 -285 678 -262 l 649 -285 q 627 -239 641 -285 q 522 -114 528 -114 q 465 -100 497 -100 l 446 -103 q 408 -81 435 -102 q 394 -79 403 -79 q 348 -122 389 -79 q 310 -138 331 -138 q 226 -33 267 -138 l 220 -30 l 201 -30 q 71 141 147 -30 q 31 220 31 178 l 31 222 q 36 266 31 235 q 31 458 31 389 l 31 496 q 304 947 31 822 q 508 982 403 982 m 484 382 l 484 203 q 524 184 484 184 q 559 182 558 182 q 660 212 616 203 q 698 296 698 256 l 698 328 q 692 393 698 342 q 709 469 709 465 q 703 518 703 496 q 709 543 703 530 q 679 591 701 569 l 676 591 q 652 496 652 530 q 633 399 646 399 l 630 399 q 614 429 620 399 q 616 578 616 523 l 616 600 q 606 662 616 634 l 608 678 q 587 719 587 715 q 513 694 529 719 q 486 562 486 656 q 484 382 484 498 m 418 643 q 386 646 391 646 q 351 532 375 640 q 383 431 383 442 q 345 401 383 416 q 342 396 345 396 q 380 304 342 345 l 383 277 l 383 247 q 443 198 383 216 l 443 201 q 451 393 451 382 q 443 477 451 417 q 448 602 448 558 q 446 648 446 640 q 418 643 429 643 m 869 0 q 831 -35 869 -35 q 820 -43 820 -35 q 869 -117 820 -89 l 896 -114 l 896 -111 q 890 -8 890 -21 q 869 0 884 -3 z "},"r":{"ha":994,"x_min":31,"x_max":964,"o":"m 74 977 l 112 977 q 619 949 593 977 q 782 852 729 920 q 844 654 844 781 q 798 488 844 589 q 790 326 790 399 l 790 209 q 907 19 790 184 q 964 -73 964 -63 l 964 -81 q 939 -109 964 -109 q 871 -146 939 -126 q 842 -263 857 -146 l 831 -271 l 809 -271 q 787 -222 787 -248 q 790 -146 787 -212 q 760 -90 790 -105 q 733 -79 745 -81 q 687 -182 695 -172 l 668 -182 q 635 -100 635 -174 q 608 -54 635 -81 l 608 -24 l 595 -22 q 581 -33 595 -25 l 562 -33 q 513 92 513 -1 q 484 165 503 165 q 443 241 471 179 q 386 293 407 263 q 375 187 378 197 q 383 100 383 143 q 364 11 364 64 q 386 -95 386 -72 l 386 -106 q 361 -122 376 -122 q 329 -111 348 -122 q 272 -220 288 -220 l 261 -220 q 226 -176 235 -208 q 155 -98 180 -134 q 115 -136 136 -136 q 66 -90 96 -136 q 39 -24 66 -74 l 39 -14 q 58 71 58 60 q 52 171 52 118 l 52 184 q 66 220 52 189 q 44 290 44 279 l 55 363 q 31 423 31 407 q 79 477 31 437 l 79 526 q 52 624 52 616 q 50 665 50 651 q 58 722 50 677 q 50 779 50 766 q 60 838 52 815 q 33 860 36 853 l 33 863 q 50 906 33 878 q 39 925 50 910 l 39 930 q 74 977 39 952 m 372 719 l 372 716 q 361 654 372 707 q 389 624 361 648 l 391 613 q 383 572 383 581 q 437 524 383 545 l 440 524 q 473 543 467 524 q 467 673 467 627 l 470 697 l 467 697 q 443 692 450 692 q 375 719 434 692 l 372 719 m 519 621 l 519 602 q 522 556 519 588 q 538 586 538 565 l 538 602 q 530 697 538 675 q 519 621 519 697 m 698 393 l 698 374 q 749 260 698 316 l 752 285 q 749 323 752 306 q 752 399 752 359 l 752 412 l 755 439 q 698 393 709 408 z "},"s":{"ha":861,"x_min":31,"x_max":831,"o":"m 437 964 l 475 964 q 804 888 639 964 l 804 886 l 782 834 q 790 810 790 817 l 790 804 q 749 734 790 791 l 749 647 q 728 557 749 557 l 725 557 q 663 666 680 557 q 630 699 658 699 q 532 731 589 699 l 516 731 q 492 704 498 707 l 484 704 q 435 718 477 704 q 359 671 359 694 l 359 663 q 581 519 359 613 q 782 335 753 433 q 823 240 808 245 q 831 221 831 230 l 831 213 q 798 151 831 199 q 771 -142 798 126 q 774 -172 774 -161 l 760 -183 l 755 -183 q 722 -61 730 -176 l 720 -61 q 714 -69 720 -69 l 706 -69 q 698 -53 698 -66 l 698 -45 l 692 -45 q 668 -121 692 -105 q 638 -199 654 -121 q 622 -224 628 -223 l 614 -224 q 587 -183 587 -203 l 595 -140 q 570 -91 595 -116 q 478 -126 515 -100 q 383 -153 455 -132 q 277 -137 298 -153 q 256 -107 258 -107 q 163 -159 163 -128 q 166 -197 166 -193 q 139 -216 158 -216 q 96 -161 117 -216 q 52 -37 96 -79 q 44 -12 44 -26 l 44 31 q 31 56 44 41 q 52 99 46 83 q 36 151 36 143 l 36 161 q 66 189 36 181 q 77 205 66 205 q 283 134 235 134 q 299 129 283 131 l 299 132 q 302 297 299 155 q 275 346 302 326 l 264 346 q 174 406 211 346 q 131 427 164 417 q 93 452 130 433 q 44 560 44 519 l 47 585 l 41 595 q 112 810 64 726 q 302 945 159 895 q 437 964 381 964 m 356 313 q 342 123 353 291 l 399 118 q 513 180 498 118 q 516 191 513 186 q 473 256 516 235 l 467 254 l 465 254 q 427 283 451 279 q 356 313 376 313 z "},"t":{"ha":926,"x_min":31,"x_max":896,"o":"m 199 1006 l 220 1006 q 280 977 230 1006 l 855 977 q 863 947 863 977 l 863 884 q 893 819 863 871 l 896 792 l 896 735 q 874 708 896 708 l 866 708 q 814 732 838 708 q 798 724 802 724 q 795 665 795 684 q 798 594 795 625 q 785 355 785 473 l 785 345 q 777 336 785 340 q 760 358 760 342 l 760 388 q 755 648 755 621 q 725 694 755 694 l 703 705 q 644 627 644 659 q 608 559 625 574 q 606 551 608 551 l 608 545 l 608 494 q 649 296 608 452 q 654 193 654 232 q 614 168 644 168 q 635 22 621 22 q 676 -62 676 -15 q 630 -152 669 -152 l 625 -152 q 595 -146 596 -146 q 592 -201 592 -183 q 595 -247 592 -215 q 584 -282 584 -278 q 587 -315 587 -310 l 573 -326 l 557 -326 q 503 -233 503 -326 q 486 -157 503 -157 q 465 -152 469 -152 q 432 -174 449 -174 l 429 -174 q 367 -152 415 -174 l 367 -209 q 329 -271 367 -271 q 269 -220 269 -265 l 269 -217 q 275 -168 275 -190 q 245 -117 275 -160 q 234 -8 234 -59 q 283 296 283 252 l 283 298 q 280 608 283 446 q 283 700 283 654 q 253 724 283 715 q 229 716 235 716 l 226 716 q 182 732 220 716 q 123 700 159 700 q 41 738 98 700 q 31 765 31 755 q 58 971 31 873 l 66 977 l 98 977 l 199 1006 z "},"u":{"ha":1016,"x_min":31,"x_max":985,"o":"m 288 1000 l 307 1000 q 402 935 343 1000 q 380 788 397 876 q 361 715 361 745 q 389 555 361 596 q 432 484 432 494 l 435 471 q 397 368 435 408 q 386 278 391 361 q 448 210 386 226 q 486 175 454 210 q 497 172 491 172 l 500 172 q 530 202 514 172 q 619 224 560 216 q 638 251 633 239 l 635 283 l 663 365 q 652 419 663 367 l 652 438 q 679 604 679 587 q 676 967 679 709 l 682 970 l 958 970 l 964 967 q 966 709 966 792 l 966 606 q 977 566 966 599 l 977 560 q 966 490 966 499 l 966 476 l 985 387 l 985 365 q 966 302 985 358 q 958 224 958 243 q 964 167 958 196 q 912 56 930 56 l 888 56 q 852 -9 852 35 q 858 -113 858 -100 q 820 -164 843 -164 l 817 -164 q 741 -94 790 -164 l 739 -77 q 703 -145 736 -77 l 690 -148 q 635 -113 675 -148 l 595 -113 q 570 -107 578 -107 q 522 -161 543 -161 q 440 -96 515 -161 q 394 -91 438 -94 q 359 -121 359 -98 q 310 -210 322 -210 l 299 -210 q 267 -134 267 -201 q 239 -50 260 -50 q 201 -18 229 -47 l 199 -18 q 174 -28 182 -28 l 163 -28 q 98 37 98 -11 q 52 172 78 141 l 52 186 q 66 292 66 277 q 31 425 66 318 l 31 438 q 55 522 55 511 l 55 541 q 44 661 44 633 l 44 726 q 66 867 44 740 l 66 872 q 63 967 63 926 q 85 972 73 972 l 207 972 l 288 1000 z "},"v":{"ha":1065,"x_min":31,"x_max":1034,"o":"m 760 991 q 812 975 770 991 l 1029 975 q 1034 970 1034 975 l 1034 967 q 966 715 966 746 l 961 682 q 966 639 966 660 l 937 574 q 942 522 942 557 q 928 487 942 515 q 931 245 931 291 q 947 61 942 158 l 947 56 q 937 45 947 52 l 918 45 q 893 83 903 45 q 896 191 893 108 q 893 411 893 366 l 890 435 l 885 435 q 861 308 878 413 q 833 186 845 288 q 793 140 833 165 q 774 85 774 101 l 774 75 q 777 28 774 50 q 728 -115 777 -76 q 692 -142 692 -120 q 673 -237 692 -237 l 660 -237 q 616 -153 623 -237 q 592 -164 602 -164 l 576 -164 q 527 -151 535 -151 l 516 -151 q 470 -164 470 -151 q 443 -251 470 -251 l 432 -251 q 380 -199 380 -238 q 356 -91 380 -91 q 315 -50 315 -64 q 326 -34 315 -47 l 326 -31 q 291 45 291 -2 l 291 75 q 264 110 291 85 q 229 199 245 165 q 193 381 212 381 q 180 416 180 400 l 180 452 q 131 514 180 489 q 109 593 118 524 q 93 655 93 621 l 101 720 q 39 932 101 753 q 31 967 31 958 l 36 970 l 104 970 q 329 972 187 970 q 361 918 354 972 q 397 867 361 888 q 424 826 424 840 l 418 807 q 437 785 433 798 l 429 731 q 478 682 478 724 l 478 674 q 473 636 473 645 q 484 593 484 600 q 473 528 473 536 q 503 457 473 483 q 535 381 511 441 l 541 381 l 541 387 q 527 416 541 397 l 527 433 q 578 514 578 488 q 646 726 578 555 q 673 812 673 804 q 668 850 668 848 l 679 913 q 676 959 676 945 q 728 991 690 991 l 760 991 z "},"w":{"ha":1496,"x_min":31,"x_max":1466,"o":"m 1457 970 q 1466 962 1461 970 l 1466 956 q 1390 595 1398 650 l 1390 549 q 1400 509 1390 542 l 1400 503 q 1354 408 1400 446 q 1341 346 1341 385 q 1357 294 1357 311 q 1335 213 1348 217 q 1278 107 1286 144 l 1278 104 q 1286 -56 1286 -16 q 1259 -180 1286 -180 q 1238 -316 1244 -304 l 1232 -319 l 1224 -319 q 1194 -259 1194 -319 q 1159 -123 1181 -235 l 1154 -123 q 1135 -205 1143 -123 l 1129 -208 l 1118 -208 q 1072 -161 1097 -208 q 1061 -134 1067 -134 l 1026 -134 q 969 -232 992 -165 l 958 -240 l 950 -240 q 888 -102 888 -240 q 850 -45 850 -77 q 825 56 841 56 q 804 145 804 56 l 804 235 q 766 381 804 252 q 744 422 766 387 l 741 422 q 690 213 724 422 q 695 175 690 199 q 679 34 679 79 l 698 -77 q 654 -121 686 -121 q 625 -123 645 -123 l 622 -123 l 622 -159 q 581 -237 615 -237 l 573 -237 q 508 -172 508 -219 q 456 -121 504 -172 q 435 -110 441 -110 q 370 -137 414 -137 q 361 -140 370 -140 l 345 -140 q 253 -77 305 -140 q 248 -53 248 -60 l 248 -50 q 264 -1 248 -41 l 264 1 q 166 395 264 25 l 163 395 q 134 294 134 380 q 115 235 123 235 l 106 235 q 77 378 87 235 l 79 403 q 68 438 68 428 l 68 457 q 58 661 58 614 q 36 804 47 687 l 36 818 q 44 823 36 823 q 36 897 36 883 q 39 905 36 899 q 31 951 31 935 q 47 959 33 959 l 294 959 q 332 810 304 959 l 427 400 q 462 359 442 375 q 505 419 499 359 q 527 538 527 518 l 527 549 q 522 677 527 589 q 576 845 522 701 q 630 962 623 961 q 641 964 635 964 l 725 964 q 863 967 774 964 q 893 916 886 967 q 956 715 937 715 q 1010 680 956 711 q 1021 650 1021 662 q 999 568 999 597 q 1031 332 999 436 l 1042 332 q 1078 397 1064 332 q 1121 595 1091 428 l 1121 604 q 1110 680 1121 614 q 1145 818 1145 789 q 1181 891 1181 835 q 1208 970 1194 970 l 1457 970 z "},"x":{"ha":1100,"x_min":31,"x_max":1069,"o":"m 125 983 l 139 983 q 196 962 149 983 l 210 962 q 367 964 258 962 q 424 894 380 964 q 527 747 494 854 q 541 726 537 726 q 622 821 561 767 q 673 902 642 902 q 717 967 688 913 q 722 970 722 967 l 1013 975 q 1015 967 1015 970 q 950 845 950 861 l 950 821 q 918 772 926 794 q 896 753 896 756 l 896 750 q 904 718 904 724 l 904 693 q 885 454 893 659 q 874 357 874 404 l 874 275 q 904 194 874 218 q 983 85 949 115 q 1037 50 983 60 q 1069 -4 1069 24 l 1069 -18 q 1023 -47 1057 -39 l 1023 -53 q 1026 -83 1023 -64 q 996 -99 1026 -99 q 939 -58 979 -90 l 934 -58 q 912 -61 923 -58 q 836 -20 866 -61 l 831 -20 l 831 -37 q 790 -85 831 -85 q 774 -178 783 -85 l 766 -183 l 758 -183 q 728 -80 728 -183 q 641 75 680 75 q 584 194 584 102 l 565 243 l 559 243 q 530 178 555 240 q 413 61 481 86 q 378 -23 378 35 q 318 -80 357 -80 q 264 -58 312 -80 l 258 -58 q 226 -69 229 -69 l 215 -69 q 163 -47 199 -69 q 123 -110 136 -110 q 85 -129 93 -110 q 68 -134 76 -134 q 31 -99 31 -121 q 98 53 31 -1 q 188 205 188 176 q 193 359 193 279 q 163 403 193 361 l 161 419 l 161 435 q 185 495 185 459 l 185 568 q 191 685 185 604 l 191 693 l 188 693 q 155 509 174 531 q 144 498 155 505 l 139 498 q 134 506 134 498 q 139 574 139 564 l 139 593 q 93 897 139 849 q 77 918 81 903 q 125 983 77 969 m 272 639 q 245 560 272 622 l 245 547 q 239 463 245 512 q 275 414 275 425 q 277 403 277 409 q 250 313 250 361 l 250 305 q 310 406 268 305 q 340 460 340 443 q 302 587 315 573 q 277 639 292 600 l 272 639 m 825 620 q 814 525 825 579 q 812 330 814 472 q 839 286 812 311 l 839 305 q 842 338 839 330 q 839 381 839 359 q 828 620 839 495 l 825 620 m 733 449 q 787 362 733 427 q 790 457 790 426 l 790 495 l 787 495 q 733 449 733 469 z "},"y":{"ha":994,"x_min":31,"x_max":964,"o":"m 679 1008 l 684 1008 q 774 986 753 986 q 918 989 897 989 q 964 951 964 981 l 964 943 q 923 883 945 929 q 885 802 885 865 q 877 777 881 802 q 888 731 888 743 q 852 620 869 620 l 850 620 q 801 655 833 620 l 795 658 q 774 633 778 658 l 774 574 q 752 509 753 530 q 701 414 722 414 l 692 414 l 673 416 l 625 202 l 625 183 q 649 121 625 174 q 665 20 665 50 q 654 -47 661 -47 q 619 -96 619 -70 l 619 -132 q 595 -183 619 -168 l 584 -183 q 562 -121 568 -183 q 522 -37 543 -37 q 451 -20 507 -37 q 413 -42 413 -20 l 413 -45 q 416 -99 413 -68 q 389 -132 412 -132 l 378 -132 q 329 -75 334 -132 q 326 -39 326 -75 l 326 -12 q 296 58 326 -5 q 291 102 291 70 q 329 216 302 216 q 340 229 340 223 q 261 463 297 420 q 231 590 242 559 l 229 590 q 210 476 215 570 q 212 460 212 462 q 199 444 209 449 l 196 444 q 174 533 174 444 l 174 614 q 153 704 171 695 q 87 783 87 728 q 52 891 77 846 l 31 970 l 33 975 q 302 981 220 978 q 359 886 323 981 q 456 720 431 726 l 459 720 q 522 812 484 720 q 584 848 549 841 l 587 853 l 587 872 q 619 940 587 905 q 668 1005 619 1005 q 679 1008 668 1008 z "},"z":{"ha":910,"x_min":31,"x_max":880,"o":"m 294 977 l 817 977 q 844 928 844 941 q 842 901 842 904 q 852 863 852 871 q 817 743 852 844 q 814 713 814 720 q 820 562 820 608 q 804 556 811 556 q 755 665 755 569 l 749 665 q 671 559 724 615 q 649 548 664 559 q 657 526 657 534 q 606 401 657 439 q 500 363 606 391 q 446 277 446 295 l 446 274 q 462 231 446 240 l 473 231 q 541 258 483 231 l 551 258 q 638 222 585 258 q 652 217 638 217 l 725 217 q 771 241 739 217 q 874 217 874 241 q 880 203 880 217 l 880 198 l 855 133 q 861 106 858 111 q 852 68 852 74 l 852 57 l 869 -19 q 828 -111 852 -69 q 806 -190 828 -174 l 801 -190 q 771 -152 777 -190 l 771 -35 q 763 -19 771 -21 l 760 -19 q 720 -52 747 -52 q 684 -22 705 -52 q 673 -16 673 -20 q 627 -98 655 -16 q 608 -106 617 -106 l 597 -106 q 503 -16 547 -60 l 494 -16 q 467 -127 480 -16 q 470 -190 470 -177 q 459 -203 465 -202 l 451 -203 q 399 -90 405 -203 q 380 -11 395 -11 l 372 -11 q 294 -43 320 -11 l 283 -43 l 250 -38 q 207 -57 222 -57 l 196 -57 l 136 -33 q 101 -81 109 -78 l 90 -81 q 31 24 50 -81 l 31 33 q 44 152 40 147 q 196 361 64 169 q 378 621 378 607 q 397 716 397 693 l 394 735 l 375 735 q 348 662 363 662 q 321 711 321 662 q 323 738 323 719 q 302 743 313 743 l 299 743 q 258 724 277 724 l 204 732 l 199 732 q 134 686 139 697 q 120 553 132 553 q 109 548 113 548 l 112 543 l 112 534 q 106 529 112 529 l 98 529 q 93 534 93 529 l 93 589 q 41 776 93 615 q 58 833 41 802 q 55 873 55 860 q 68 939 68 925 l 68 968 l 71 974 q 294 977 212 977 z "},"{":{"ha":751,"x_min":0,"x_max":0,"o":""},"|":{"ha":751,"x_min":0,"x_max":0,"o":""},"}":{"ha":751,"x_min":0,"x_max":0,"o":""},"~":{"ha":751,"x_min":0,"x_max":0,"o":""},"¡":{"ha":456,"x_min":0,"x_max":0,"o":""},"¢":{"ha":772,"x_min":0,"x_max":0,"o":""},"£":{"ha":751,"x_min":0,"x_max":0,"o":""},"¤":{"ha":751,"x_min":0,"x_max":0,"o":""},"¥":{"ha":751,"x_min":0,"x_max":0,"o":""},"¦":{"ha":751,"x_min":0,"x_max":0,"o":""},"§":{"ha":751,"x_min":0,"x_max":0,"o":""},"¨":{"ha":694,"x_min":0,"x_max":0,"o":""},"©":{"ha":1135,"x_min":0,"x_max":0,"o":""},"ª":{"ha":439,"x_min":0,"x_max":0,"o":""},"«":{"ha":669,"x_min":0,"x_max":0,"o":""},"¬":{"ha":751,"x_min":0,"x_max":0,"o":""},"®":{"ha":1135,"x_min":0,"x_max":0,"o":""},"¯":{"ha":454,"x_min":0,"x_max":0,"o":""},"°":{"ha":490,"x_min":0,"x_max":0,"o":""},"±":{"ha":688,"x_min":0,"x_max":0,"o":""},"²":{"ha":688,"x_min":0,"x_max":0,"o":""},"³":{"ha":688,"x_min":0,"x_max":0,"o":""},"´":{"ha":694,"x_min":0,"x_max":0,"o":""},"µ":{"ha":800,"x_min":0,"x_max":0,"o":""},"¶":{"ha":751,"x_min":0,"x_max":0,"o":""},"·":{"ha":375,"x_min":0,"x_max":0,"o":""},"∙":{"ha":375,"x_min":0,"x_max":0,"o":""},"¸":{"ha":724,"x_min":0,"x_max":0,"o":""},"¹":{"ha":688,"x_min":0,"x_max":0,"o":""},"º":{"ha":487,"x_min":0,"x_max":0,"o":""},"»":{"ha":669,"x_min":0,"x_max":0,"o":""},"¼":{"ha":1158,"x_min":0,"x_max":0,"o":""},"½":{"ha":1332,"x_min":0,"x_max":0,"o":""},"¾":{"ha":1158,"x_min":0,"x_max":0,"o":""},"¿":{"ha":507,"x_min":0,"x_max":0,"o":""},"À":{"ha":1044,"x_min":0,"x_max":0,"o":""},"Á":{"ha":1044,"x_min":0,"x_max":0,"o":""},"Â":{"ha":1044,"x_min":0,"x_max":0,"o":""},"Ã":{"ha":1044,"x_min":0,"x_max":0,"o":""},"Ä":{"ha":1044,"x_min":0,"x_max":0,"o":""},"Å":{"ha":1044,"x_min":0,"x_max":0,"o":""},"Æ":{"ha":1436,"x_min":0,"x_max":0,"o":""},"Ç":{"ha":949,"x_min":0,"x_max":0,"o":""},"È":{"ha":781,"x_min":0,"x_max":0,"o":""},"É":{"ha":781,"x_min":0,"x_max":0,"o":""},"Ê":{"ha":781,"x_min":0,"x_max":0,"o":""},"Ë":{"ha":781,"x_min":0,"x_max":0,"o":""},"Ì":{"ha":446,"x_min":0,"x_max":0,"o":""},"Í":{"ha":446,"x_min":0,"x_max":0,"o":""},"Î":{"ha":446,"x_min":0,"x_max":0,"o":""},"Ï":{"ha":446,"x_min":0,"x_max":0,"o":""},"Ð":{"ha":1029,"x_min":0,"x_max":0,"o":""},"Ñ":{"ha":1054,"x_min":0,"x_max":0,"o":""},"Ò":{"ha":1095,"x_min":0,"x_max":0,"o":""},"Ó":{"ha":1095,"x_min":0,"x_max":0,"o":""},"Ô":{"ha":1095,"x_min":0,"x_max":0,"o":""},"Õ":{"ha":1095,"x_min":0,"x_max":0,"o":""},"Ö":{"ha":1095,"x_min":0,"x_max":0,"o":""},"×":{"ha":751,"x_min":0,"x_max":0,"o":""},"Ø":{"ha":1095,"x_min":0,"x_max":0,"o":""},"Ù":{"ha":1018,"x_min":0,"x_max":0,"o":""},"Ú":{"ha":1018,"x_min":0,"x_max":0,"o":""},"Û":{"ha":1018,"x_min":0,"x_max":0,"o":""},"Ü":{"ha":1018,"x_min":0,"x_max":0,"o":""},"Ý":{"ha":836,"x_min":0,"x_max":0,"o":""},"Þ":{"ha":760,"x_min":0,"x_max":0,"o":""},"ß":{"ha":848,"x_min":0,"x_max":0,"o":""},"à":{"ha":625,"x_min":0,"x_max":0,"o":""},"á":{"ha":625,"x_min":0,"x_max":0,"o":""},"â":{"ha":625,"x_min":0,"x_max":0,"o":""},"ã":{"ha":625,"x_min":0,"x_max":0,"o":""},"ä":{"ha":625,"x_min":0,"x_max":0,"o":""},"å":{"ha":625,"x_min":0,"x_max":0,"o":""},"æ":{"ha":986,"x_min":0,"x_max":0,"o":""},"ç":{"ha":614,"x_min":0,"x_max":0,"o":""},"è":{"ha":616,"x_min":0,"x_max":0,"o":""},"é":{"ha":616,"x_min":0,"x_max":0,"o":""},"ê":{"ha":616,"x_min":0,"x_max":0,"o":""},"ë":{"ha":616,"x_min":0,"x_max":0,"o":""},"ì":{"ha":349,"x_min":0,"x_max":0,"o":""},"í":{"ha":349,"x_min":0,"x_max":0,"o":""},"î":{"ha":349,"x_min":0,"x_max":0,"o":""},"ï":{"ha":349,"x_min":0,"x_max":0,"o":""},"ð":{"ha":772,"x_min":0,"x_max":0,"o":""},"ñ":{"ha":751,"x_min":0,"x_max":0,"o":""},"ò":{"ha":685,"x_min":0,"x_max":0,"o":""},"ó":{"ha":685,"x_min":0,"x_max":0,"o":""},"ô":{"ha":685,"x_min":0,"x_max":0,"o":""},"õ":{"ha":685,"x_min":0,"x_max":0,"o":""},"ö":{"ha":685,"x_min":0,"x_max":0,"o":""},"÷":{"ha":751,"x_min":0,"x_max":0,"o":""},"ø":{"ha":685,"x_min":0,"x_max":0,"o":""},"ù":{"ha":718,"x_min":0,"x_max":0,"o":""},"ú":{"ha":718,"x_min":0,"x_max":0,"o":""},"û":{"ha":718,"x_min":0,"x_max":0,"o":""},"ü":{"ha":718,"x_min":0,"x_max":0,"o":""},"ý":{"ha":589,"x_min":0,"x_max":0,"o":""},"þ":{"ha":685,"x_min":0,"x_max":0,"o":""},"ÿ":{"ha":589,"x_min":0,"x_max":0,"o":""},"ı":{"ha":414,"x_min":0,"x_max":0,"o":""},"ˆ":{"ha":612,"x_min":0,"x_max":0,"o":""},"ˇ":{"ha":733,"x_min":0,"x_max":0,"o":""},"ˉ":{"ha":724,"x_min":0,"x_max":0,"o":""},"˘":{"ha":726,"x_min":0,"x_max":0,"o":""},"˙":{"ha":724,"x_min":0,"x_max":0,"o":""},"˚":{"ha":724,"x_min":0,"x_max":0,"o":""},"˛":{"ha":725,"x_min":0,"x_max":0,"o":""},"˜":{"ha":727,"x_min":0,"x_max":0,"o":""},"˝":{"ha":728,"x_min":0,"x_max":0,"o":""},"–":{"ha":751,"x_min":0,"x_max":0,"o":""},"—":{"ha":1389,"x_min":0,"x_max":0,"o":""},"‘":{"ha":424,"x_min":0,"x_max":0,"o":""},"’":{"ha":424,"x_min":0,"x_max":0,"o":""},"‚":{"ha":424,"x_min":0,"x_max":0,"o":""},"“":{"ha":668,"x_min":0,"x_max":0,"o":""},"”":{"ha":668,"x_min":0,"x_max":0,"o":""},"„":{"ha":668,"x_min":0,"x_max":0,"o":""},"†":{"ha":751,"x_min":0,"x_max":0,"o":""},"‡":{"ha":751,"x_min":0,"x_max":0,"o":""},"•":{"ha":751,"x_min":0,"x_max":0,"o":""},"…":{"ha":1389,"x_min":0,"x_max":0,"o":""},"‹":{"ha":458,"x_min":0,"x_max":0,"o":""},"›":{"ha":458,"x_min":0,"x_max":0,"o":""},"⁄":{"ha":232,"x_min":0,"x_max":0,"o":""},"∕":{"ha":232,"x_min":0,"x_max":0,"o":""},"₣":{"ha":751,"x_min":0,"x_max":0,"o":""},"₤":{"ha":751,"x_min":0,"x_max":0,"o":""},"₧":{"ha":1503,"x_min":0,"x_max":0,"o":""},"€":{"ha":751,"x_min":0,"x_max":0,"o":""},"№":{"ha":1540,"x_min":0,"x_max":0,"o":""},"™":{"ha":1015,"x_min":0,"x_max":0,"o":""},"∂":{"ha":751,"x_min":0,"x_max":0,"o":""},"∆":{"ha":838,"x_min":0,"x_max":0,"o":""},"∏":{"ha":1135,"x_min":0,"x_max":0,"o":""},"∑":{"ha":871,"x_min":0,"x_max":0,"o":""},"−":{"ha":751,"x_min":0,"x_max":0,"o":""},"√":{"ha":751,"x_min":0,"x_max":0,"o":""},"∞":{"ha":751,"x_min":0,"x_max":0,"o":""},"∫":{"ha":460,"x_min":0,"x_max":0,"o":""},"≈":{"ha":751,"x_min":0,"x_max":0,"o":""},"≤":{"ha":751,"x_min":0,"x_max":0,"o":""},"≥":{"ha":751,"x_min":0,"x_max":0,"o":""},"":{"ha":728,"x_min":0,"x_max":0,"o":""},"ﬁ":{"ha":728,"x_min":0,"x_max":0,"o":""},"":{"ha":733,"x_min":0,"x_max":0,"o":""},"ﬂ":{"ha":733,"x_min":0,"x_max":0,"o":""}}}
